/* XPM */
static char *result[] = {
/* columns rows colors chars-per-pixel */
"64 64 9 1 ",
"  c #754C60",
". c #90625D",
"X c #AA7959",
"o c #C49A6C",
"O c #A4C263",
"+ c #C0D470",
"@ c #DCB98A",
"# c #E8CFA6",
"$ c #E8EEAA",
/* pixels */
"        ++++++++++++++++++++        ++++++++++++++++++++        ",
"        ++++++++++++++++++++        ++++++++++++++++++++        ",
"        ++++++++++++++++++++        +++OO++OO+++++++++++        ",
"        ++++++++++++++++++++        +++OO++OO+++++++++++        ",
"oooooooo    ++++++++        oooooooo    +OO+++++++++    oooooooo",
"oooooooo    +++++++O        oooooooo    +OO+++++++++    oooooooo",
"oooooooo    +++++++O        oooooooo    ++++++++++++    oooooooo",
"oooooooo    ++++++++        oooooooo    ++++++++++++    oooooooo",
"oooooooo            oooooooo........    ++++++++++++    oooooooo",
"oooooooo            oooooooo........    ++++++++++++    oooooooo",
"oooooooo            oooooooo........    ++++++++++++    oooooooo",
"oooooooo            oooooooo........    ++++++++++++    oooooooo",
"oooooooo    oooooooo................    ++++++++++++    oooooooo",
"oooooooo    oooooooo................    ++++++++++++    oooooooo",
"oooooooo    oooooooo................    ++++++++++++    oooooooo",
"oooooooo    oooooooo................    ++++++++++++    oooooooo",
"@@@@@@@@    ................XXXX....    ++++++++++++    @@@@@@@@",
"@@@@@@@@    ................XXXX....    ++++++++++++    @@@@@@@@",
"@@@@@@@@    ................XXXX....    ++++++++++++    @@@@@@@@",
"@@@@@@@@    ................XXXX....    ++++++++++++    @@@@@@@@",
"XXXXXXXX    ................XXXX....    ++++++++++++    XXXXXXXX",
"XXXXXXXX    ................XXXX....    ++++++++++++    XXXXXXXX",
"XXXXXXXX    ................XXXX....    ++++++++++++    XXXXXXXX",
"XXXXXXXX    ................XXXX....    ++++++++++++    XXXXXXXX",
"XXXXXXXX    ....XXXX........XXXX....    ++++++++++++    XXXXXXXX",
"XXXXXXXX    ....XXXX........XXXX....    ++++++++++++    XXXXXXXX",
"XXXXXXXX    ....XXXX........XXXX....    ++++++++++++    XXXXXXXX",
"XXXXXXXX    ....XXXX........XXXX....    +++OO++OO+++    XXXXXXXX",
"........    ....XXXX........XXXX####    +++OO++OO+++    ........",
"........    ....XXXX........XXXX####    +++++OO+++++    ........",
"........    ....XXXX........XXXX####    +++++OO+++++    ........",
"........    ....XXXX........XXXX####    ++++++++++++    ........",
"XXXXXXXX    ....XXXX........####....    ++++++++++++    XXXXXXXX",
"XXXXXXXX    ....XXXX........####....    ++++++++++++    XXXXXXXX",
"XXXXXXXX    ....XXXX........####....    ++++++++++++    XXXXXXXX",
"XXXXXXXX    ....XXXX........####....    ++++++++++++    XXXXXXXX",
"XXXXXXXX    ....XXXX........XXXX....    ++++++++++++    XXXXXXXX",
"XXXXXXXX    ....XXXX........XXXX....    ++++++++++++    XXXXXXXX",
"XXXXXXXX    ....XXXX........XXXX....    ++++++++++++    XXXXXXXX",
"XXXXXXXX    ....XXXX........XXXX....    ++++++++++++    XXXXXXXX",
"XXXXXXXX    ....XXXX........XXXX....    ++++++++++++    XXXXXXXX",
"XXXXXXXX    ....XXXX........XXXX....    ++++++++++++    XXXXXXXX",
"XXXXXXXX    ....XXXX........XXXX....    ++++++++++++    XXXXXXXX",
"XXXXXXXX    ....XXXX........XXXX....    ++++++++++++    XXXXXXXX",
"........    ....XXXX................    +++++++$$++$    ........",
"........    ....XXXX................    +++++++$$++$    ........",
"........    ....XXXX................    +++++++++$$+    ........",
"........    ....XXXX................    +++++++++$$+    ........",
"XXXXXXXX    ....XXXX................    ++++++++++++    XXXXXXXX",
"XXXXXXXX    ....XXXX................    ++++++++++++    XXXXXXXX",
"XXXXXXXX    ....XXXX................    ++++++++++++    XXXXXXXX",
"XXXXXXXX    ....XXXX................    ++++++++++++    XXXXXXXX",
"XXXXXXXX    ................        ++++++++++++++++    XXXXXXXX",
"XXXXXXXX    ................        ++++++++++++++++    XXXXXXXX",
"XXXXXXXX    ................        ++++++++++++++++    XXXXXXXX",
"XXXXXXXX    ................        ++++++++++++++++    XXXXXXXX",
"XXXXXXXX    ........        ++++++++++++++++++++++++    XXXXXXXX",
"XXXXXXXX    ........        ++++++++++++++++++++++++    XXXXXXXX",
"XXXXXXXX    ........        ++++++++++++++++++++++++    XXXXXXXX",
"XXXXXXXX    ........        ++++++++++++++++++++++++    XXXXXXXX",
"                    ++++++++++++++++++++++++++++++++            ",
"                    ++++++++++++++++++++++++++++++++            ",
"                    ++++++++++++++++++++++++++++++++            ",
"                    ++++++++++++++++++++++++++++++++            "
};
