/* XPM */
static char *result[] = {
/* columns rows colors chars-per-pixel */
"64 64 12 1 ",
"  c #5F7A79",
". c #90625D",
"X c #AA7959",
"o c #6E967C",
"O c #B68962",
"+ c #C49A6C",
"@ c #A4C263",
"# c #C0D470",
"$ c #97BB8E",
"% c #AED499",
"& c #C2E09A",
"* c #E8EEAA",
/* pixels */
"################################################################",
"################################################################",
"#######################                    @@###################",
"#######################                    @@###################",
"###################    $$$%%%%%%%%%%%%$$$$$  ###################",
"###################    $$$%%%%%%%%%%%%$$$$$  ###################",
"###############    $$%%%%%%%&&&&&&%%&&&&&%%$$    ###############",
"###############    $$%%%%%%%&&&&&&%%&&&&&%%$$    ###############",
"#############  $$%%%%%%%%%%%&&&&&&%%&&&&&%%%%$$$$  #############",
"#############  $$%%%%%%%%%%%&&&&&&%%&&&&&%%%%$$$$  #############",
"###########  $$%%&&&&&&%%%&&&&&&%%%%%%%%%%%%%%%%%$$  ###########",
"###########  $$%%&&&&&&%%%&&&&&&%%%%%%%%%%%%%%%%%$$  ###########",
"#########  $$$$%%&&&&&&&&&&&&&%%%%%%&&&&&&&%%%%%%$$$$  #########",
"#########  $$$$%%&&&&&&&&&&&&&%%%%%%&&&&&&&%%%%%%$$$$  #########",
"#########  %%%%%%%%%%&&&&&%%%%%%%%%%&&&&&&&&&&&&&$$$$  #########",
"#########  %%%%%%%%%%&&&&&%%%%%%%%%%&&&&&&&&&&&&&$$$$  #########",
"######   $$%%%%%%%%%%%%%%%%%%%%%%%%%%%%%%%%&&&&&&%%%%$$   ######",
"######   $$%%%%%%%%%%%%%%%%%%%%%%%%%%%%%%%%&&&&&&%%%%$$   ######",
"######   $$%%%%%%%%%%%%%%%%%%%%%%%%%%%%%%%%%%%%%%%%%%$$   ##@@##",
"######   $$%%%%%%%%%%%%%%%%%%%%%%%%%%%%%%%%%%%%%%%%%%$$   ##@@##",
"######   $$$$$$%%%%%%$$$$$%%%%%%%%%%%%$$$$$$$%%%%$$$$$$   @@####",
"######   $$$$$$%%%%%%$$$$$%%%%%%%%%%%%$$$$$$$%%%%$$$$$$   @@####",
"######   $$$$$$%%%%%%$$$$$%%%%%%%%%%%%$$$$$$$%%%%$$$$  #########",
"######   $$$$$$%%%%%%$$$$$%%%%%%%%%%%%$$$$$$$%%%%$$$$  #########",
"######   $$$$$$$$$$$$$$$$$$$$$$$%%%%$$%%%%%%%$$$$$$$$  #########",
"######   $$$$$$$$$$$$$$$$$$$$$$$%%%%$$%%%%%%%$$$$$$$$  #########",
"#########  $$$$$$%%%%%%$$$$$$$$$$$$$$$$$$$$$$$$$$$$$$$$   ######",
"#########  $$$$$$%%%%%%$$$$$$$$$$$$$$$$$$$$$$$$$$$$$$$$   ######",
"#########  $$$$$$$$$$$$$$$$$$$$$$$$$$$$$$$$$$$$$$$$$$$$   ######",
"#########  $$$$$$$$$$$$$$$$$$$$$$$$$$$$$$$$$$$$$$$$$$$$   ######",
"######   oo$$$$$$$$$$$$$$$$$$$$$$$$$$$$$$$$$$$$$$$$$$oo   ######",
"######   oo$$$$$$$$$$$$$$$$$$$$$$$$$$$$$$$$$$$$$$$$$$oo   ######",
"######   oooooo$$oooo$$$$$oooooo$$$$$$$$$$$oooooooooooo   ######",
"######   oooooo$$oooo$$$$$oooooo$$$$$$$$$$$oooooooooooo   ######",
"######   oooooo$$oooo$$$$$oooooo$$$$$$$$$$$oooooooooooo   ######",
"######   oooooo$$oooo$$$$$oooooo$$$$$$$$$$$oooooooooooo   ######",
"######   ooooooooooooooooo$$$$$$$$$$ooooooo$$$$$$oooo  #########",
"######   ooooooooooooooooo$$$$$$$$$$ooooooo$$$$$$oooo  #########",
"#########  oooo$$$$$$oooooooooooooooooooooooooooooooo  #########",
"#########  oooo$$$$$$oooooooooooooooooooooooooooooooo  #########",
"#########  oooooooooooooooooooooooooooooooooooooooooo  #########",
"#########  oooooooooooooooooooooooooooooooooooooooooo  #########",
"###########  oooooooooooooooooooooooooooooooooooooo  ###########",
"###########  oooooooooooooooooooooooooooooooooooooo  ###########",
"#############    oooooooooooooooooooooooooooo      **###########",
"#############    oooooooooooooooooooooooooooo      **###########",
"#################                            ####**#############",
"#################                            ####**#############",
"#######################...XXXXXXXXXXXX...#######################",
"#######################...XXXXXXXXXXXX...#######################",
"#######################...OOXXXXXXXXOO...#######################",
"#######################...OOXXXXXXXXOO...#######################",
"#######################...OOOOOOOOOOOO...#######################",
"#######################...OOOOOOOOOOOO...#######################",
"#######################...OO++OO++++++...#######################",
"#########**##**########...OO++OO++++++...#######################",
"#########**##**######..++++++++++++++++++..#####################",
"###########**########..++++++++++++++++++..#####################",
"###########**##########++++++++++++++++++#######################",
"#######################++++++++++++++++++#######################",
"##############################++++##############################",
"##############################++++##############################",
"################################################################",
"################################################################"
};
