/* XPM */
static char *_8d3df4a5ebd4db7e7327be4793266d6IYBpEZNwaNrmenGp[] = {
/* columns rows colors chars-per-pixel */
"64 64 10 1 ",
"  c #754C60",
". c #90625D",
"X c #C49A6C",
"o c #A4C263",
"O c #D4C169",
"+ c #C0D470",
"@ c #C58086",
"# c #E8CFA6",
"$ c #E8EEAA",
"% c #F3F2C0",
/* pixels */
"++++++++++++++++++++++++++++++++++++++++++++++++++++++++++++++++",
"++++++++++++++++++++++++++++++++++++++++++++++++++++++++++++++++",
"++++++++++++++++++++++++++++++..............o+++++++++++++++++++",
"++++++++++++++++++++++++++++++..............o+++++++++++++++++++",
"++++++++++++++++++++++++++++++..............++++++++++++++++++++",
"+++++++++++++++++++oo++oo+++++..............++++++++++++++++++++",
"+++++++++++++++++++oo++oo+++++..............++++++++++++++++++++",
"+++++++++++++++++++++oo++.....@@@@@@@@@@@@@@.....+++++++++++++++",
"+++++++++++++++++++++oo++.....@@@@@@@@@@@@@@.....+++++++++++++++",
"+++++++++++++++++++++++++.....@@@@@@@@@@@@@@.....+++++++++++++++",
"+++++++++++++++++++++++++.....@@@@@@@@@@@@@@.....+++++++++++++++",
"+++++++++++++++++++++++++.....@@@@@@@@@@@@@@.....+++++++++++++++",
"++++++++++++++++++++.....%%%%%%%%%%%%%%%%%%%%%%%%.....++++++++++",
"++++++++++++++++++++.....%%%%%%%%%%%%%%%%%%%%%%%%.....++++++++++",
"++++++++++++++++++++.....%%%%%%%%%%%%%%%%%%%%%%%%.....++++++++++",
"++++++++++++++++++++.....%%%%%%%%%%%%%%%%%%%%%%%%.....++++++++++",
"++++++++++++++++++++.....%%%%%%%%%%%%%%%%%%%%%%%%.....++++++++++",
"+++++++++++++++.....%%%%%     %%%%%%%%%     %%%%%%%%%%.....+++++",
"+++++++++++++++.....%%%%%     %%%%%%%%%     %%%%%%%%%%.....+oo++",
"+++++++++++++++.....%%%%%     %%%%%%%%%     %%%%%%%%%%.....+oo++",
"+++++++oo++oo++.....%%%%%     %%%%%%%%%     %%%%%%%%%%.....o++++",
"+++++++oo++oo++.....%%%%%     %%%%%%%%%     %%%%%%%%%%.....o++++",
"+++++++++oo++++.....%%%%%%%%%%%%%%OOOOOOOOOO%%%%%%%%%%.....+++++",
"+++++++++oo++++.....%%%%%%%%%%%%%%OOOOOOOOOO%%%%%%%%%%.....+++++",
"+++++++++++++++.....%%%%%%%%%%%%%%OOOOOOOOOO%%%%%%%%%%.....+++++",
"+++++++++++++++.....%%%%%%%%%%%%%%OOOOOOOOOO%%%%%%%%%%.....+++++",
"+++++++++++++++.....%%%%%%%%%%%%%%OOOOOOOOOO%%%%%%%%%%.....+++++",
"++++++++++.....%%%%%%%%%%%%%%%%%%%%%%%%%%%%%%%%%%%%%%%.....+++++",
"++++++++++.....%%%%%%%%%%%%%%%%%%%%%%%%%%%%%%%%%%%%%%%.....+++++",
"++++++++++.....%%%%%%%%%%%%%%%%%%%%%%%%%%%%%%%%%%%%%%%.....+++++",
"++++++++++.....%%%%%%%%%%%%%%%%%%%%%%%%%%%%%%%%%%%%%%%.....+++++",
"+++++.....%%%%%%%%%%%%%%%%%%%%%%%%%%%%%%%%%%%%%%%%%%%%.....+++++",
"+++++.....%%%%%%%%%%%%%%%%%%%%%%%%%%%%%%%%%%%%%%%%%%%%.....+++++",
"+++++.....%%%%%%%%%%%%%%%%%%%%%%%%%%%%%%%%%%%%%%%%%%%%.....+++++",
"+++++.....%%%%%%%%%%%%%%%%%%%%%%%%%%%%%%%%%%%%%%%%%%%%.....+++++",
"+++++.....%%%%%%%%%%%%%%%%%%%%%%%%%%%%%%%%%%%%%%%%%%%%.....+++++",
"+++++.....#####%%%%%XXXXX%%%%%%%%%%%%%%%%%%%%%%%%#####.....+++++",
"+++++.....#####%%%%%XXXXX%%%%%%%%%%%%%%%%%%%%%%%%#####.....+++++",
"+++++.....#####%%%%%XXXXX%%%%%%%%%%%%%%%%%%%%%%%%#####.....+++++",
"+++++.....#####%%%%%XXXXX%%%%%%%%%%%%%%%%%%%%%%%%#####.....+++++",
"+++++.....#####%%%%%XXXXX%%%%%%%%%%%%%%%%%%%%%%%%#####.....+++++",
"+++++.....XXXXXXXXXX##################################.....+++++",
"+++++.....XXXXXXXXXX##################################.....+++++",
"+++++.....XXXXXXXXXX##################################.....+++++",
"+++++.....XXXXXXXXXX##################################.....+++++",
"+++++.....XXXXXXXXXX##################################.....+++++",
"+++++.....OOOOOOOOOO........................OOOOOOOOOO.....+++++",
"+++++.....OOOOOOOOOO........................OOOOOOOOOO.....+++++",
"+++++.....OOOOOOOOOO........................OOOOOOOOOO.....+++++",
"+++++.....OOOOOOOOOO........................OOOOOOOOOO.....+++++",
"+++++.....OOOOOOOOOO........................OOOOOOOOOO.....+++++",
"++++++++++..........++++++++++++++++++++++++..........++++++++++",
"++++++++++..........++++++++++++++++++++++++..........++++++++++",
"++++++++++..........++++++++++++++++++++++++..........++++++++++",
"++++++++++..........++++++++++++++++++++++++..........++++++++++",
"++++++++$$..........++++++++++++++++++++++++..........++++++++++",
"++++++++$$++$$++++++++++++++++++++++++++++++++++++++++++++++++++",
"++++++++++$$++++++++++++++++++++++++++++++++++++++++++++++++++++",
"++++++++++$$++++++++++++++++++++++++++++++++++++++++++++++++++++",
"++++++++++++++++++++++++++++++++++++++++++++++++++++++++++++++++",
"++++++++++++++++++++++++++++++++++++++++++++++++++++++++++++++++",
"++++++++++++++++++++++++++++++++++++++++++++++++++++++++++++++++",
"++++++++++++++++++++++++++++++++++++++++++++++++++++++++++++++++",
"++++++++++++++++++++++++++++++++++++++++++++++++++++++++++++++++"
};
