/* XPM */
static char *ec6b64cdfd4c4cead4cadb419804a9ffxH0aIM55PIghZePZ[] = {
/* columns rows colors chars-per-pixel */
"64 64 10 1 ",
"  c #754C60",
". c #90625D",
"X c #C49A6C",
"o c #A4C263",
"O c #D4C169",
"+ c #C0D470",
"@ c #C58086",
"# c #E8CFA6",
"$ c #E8EEAA",
"% c #F3F2C0",
/* pixels */
"+++++++++++++++++++++++++++++..............+++++++++++++++++++++",
"+++++++++++++++++++++++++++++..............+++++++++++++++++++++",
"+++++++++++++++++++++++++++++..............oo+++++++++++++++++++",
"+++++++++++++++++++++++++++++..............oo+++++++++++++++++++",
"+++++++++++++++++++++++++++++..............+++++++++++++++++++++",
"+++++++++++++++++++oo++o.....@@@@@@@@@@@@@@.....++++++++++++++++",
"+++++++++++++++++++oo++o.....@@@@@@@@@@@@@@.....++++++++++++++++",
"+++++++++++++++++++++oo+.....@@@@@@@@@@@@@@.....++++++++++++++++",
"+++++++++++++++++++++oo+.....@@@@@@@@@@@@@@.....++++++++++++++++",
"++++++++++++++++++++++++.....@@@@@@@@@@@@@@.....++++++++++++++++",
"+++++++++++++++++++.....%%%%%%%%%%%%%%%%%%%%%%%%.....+++++++++++",
"+++++++++++++++++++.....%%%%%%%%%%%%%%%%%%%%%%%%.....+++++++++++",
"+++++++++++++++++++.....%%%%%%%%%%%%%%%%%%%%%%%%.....+++++++++++",
"+++++++++++++++++++.....%%%%%%%%%%%%%%%%%%%%%%%%.....+++++++++++",
"+++++++++++++++++++.....%%%%%%%%%%%%%%%%%%%%%%%%.....+++++++++++",
"++++++++++++++.....%%%%%%%%%%    %%%%%%%%%%     %%%%%.....++++++",
"++++++++++++++.....%%%%%%%%%%    %%%%%%%%%%     %%%%%.....++++++",
"++++++++++++++.....%%%%%%%%%%    %%%%%%%%%%     %%%%%.....++++++",
"++++++++++++++.....%%%%%%%%%%    %%%%%%%%%%     %%%%%.....++oo++",
"++++++++++++++.....%%%%%%%%%%    %%%%%%%%%%     %%%%%.....++oo++",
"+++++++oo++oo+.....%%%%%%%%%%%%%%%%%%%OOOOOOOOOO%%%%%.....oo++++",
"+++++++oo++oo+.....%%%%%%%%%%%%%%%%%%%OOOOOOOOOO%%%%%.....oo++++",
"+++++++++oo+++.....%%%%%%%%%%%%%%%%%%%OOOOOOOOOO%%%%%.....++++++",
"+++++++++oo+++.....%%%%%%%%%%%%%%%%%%%OOOOOOOOOO%%%%%.....++++++",
"++++++++++++++.....%%%%%%%%%%%%%%%%%%%OOOOOOOOOO%%%%%.....++++++",
"+++++++++.....%%%%%%%%%%%%%%%%%%%%%%%%%%%%%%%%%%%%%%%.....++++++",
"+++++++++.....%%%%%%%%%%%%%%%%%%%%%%%%%%%%%%%%%%%%%%%.....++++++",
"+++++++++.....%%%%%%%%%%%%%%%%%%%%%%%%%%%%%%%%%%%%%%%.....++++++",
"+++++++++.....%%%%%%%%%%%%%%%%%%%%%%%%%%%%%%%%%%%%%%%.....++++++",
"+++++++++.....%%%%%%%%%%%%%%%%%%%%%%%%%%%%%%%%%%%%%%%.....++++++",
"++++.....%%%%%%%%%%%%%%%%%%%%%%%%%%%%%%%%%%%%%%%%%%%%.....++++++",
"++++.....%%%%%%%%%%%%%%%%%%%%%%%%%%%%%%%%%%%%%%%%%%%%.....++++++",
"++++.....%%%%%%%%%%%%%%%%%%%%%%%%%%%%%%%%%%%%%%%%%%%%.....++++++",
"++++.....%%%%%%%%%%%%%%%%%%%%%%%%%%%%%%%%%%%%%%%%%%%%.....++++++",
"++++.....#####%%%%%%%%%%XXXXX%%%%%%%%%%%%%%%%%%%#####.....++++++",
"++++.....#####%%%%%%%%%%XXXXX%%%%%%%%%%%%%%%%%%%#####.....++++++",
"++++.....#####%%%%%%%%%%XXXXX%%%%%%%%%%%%%%%%%%%#####.....++++++",
"++++.....#####%%%%%%%%%%XXXXX%%%%%%%%%%%%%%%%%%%#####.....++++++",
"++++.....#####%%%%%%%%%%XXXXX%%%%%%%%%%%%%%%%%%%#####.....++++++",
"++++.....XXXXXXXXXXXXXXX########################.....+++++++++++",
"++++.....XXXXXXXXXXXXXXX########################.....+++++++++++",
"++++.....XXXXXXXXXXXXXXX########################.....+++++++++++",
"++++.....XXXXXXXXXXXXXXX########################.....+++++++++++",
"++++.....XXXXXXXXXXXXXXX########################.....+++++++++++",
"+++++++++...............###################.....$++$$+++++++++++",
"+++++++++...............###################.....$++$$+++++++++++",
"+++++++++...............###################.....+$$+++++++++++++",
"+++++++++...............###################.....+$$+++++++++++++",
"+++++++++...............###################.....++++++++++++++++",
"++++++++++++++++++++++++.....OOOOOOOOO.....+++++++++++++++++++++",
"++++++++++++++++++++++++.....OOOOOOOOO.....+++++++++++++++++++++",
"++++++++++++++++++++++++.....OOOOOOOOO.....+++++++++++++++++++++",
"++++++++++++++++++++++++.....OOOOOOOOO.....+++++++++++++++++++++",
"++++++++++++++++++++++++.....OOOOOOOOO.....+++++++++++++++++++++",
"+++++++++++++++++++++++++++++.........++++++++++++++++++++++++++",
"++++++++++$$++$$+++++++++++++.........++++++++++++++++++++++++++",
"++++++++++$$++$$+++++++++++++.........++++++++++++++++++++++++++",
"++++++++++++$$+++++++++++++++.........++++++++++++++++++++++++++",
"++++++++++++$$+++++++++++++++.........++++++++++++++++++++++++++",
"++++++++++++++++++++++++++++++++++++++++++++++++++++++++++++++++",
"++++++++++++++++++++++++++++++++++++++++++++++++++++++++++++++++",
"++++++++++++++++++++++++++++++++++++++++++++++++++++++++++++++++",
"++++++++++++++++++++++++++++++++++++++++++++++++++++++++++++++++",
"++++++++++++++++++++++++++++++++++++++++++++++++++++++++++++++++"
};
