/* XPM */
static char *ec3c85504d734b08d982a10feab29745WvL0EpyO8bWH0Rak[] = {
/* columns rows colors chars-per-pixel */
"64 64 10 1 ",
"  c #754C60",
". c #90625D",
"X c #C49A6C",
"o c #A4C263",
"O c #D4C169",
"+ c #C0D470",
"@ c #C58086",
"# c #E8CFA6",
"$ c #E8EEAA",
"% c #F3F2C0",
/* pixels */
"+++++++++++++++++++++++++++++................+++++++++++++++++++",
"+++++++++++++++++++++++++++++................+++++++++++++++++++",
"+++++++++++++++++++++++++++++................+++++++++++++++++++",
"+++++++++++++++++++++++++++++................+++++++++++++++++++",
"+++++++++++++++++++++++++++++................+++++++++++++++++++",
"+++++++++++++++++++oo++......@@@@@@@@@@@@@@@@.....++++++++++++++",
"+++++++++++++++++++oo++......@@@@@@@@@@@@@@@@.....++++++++++++++",
"+++++++++++++++++++++oo......@@@@@@@@@@@@@@@@.....++++++++++++++",
"+++++++++++++++++++++oo......@@@@@@@@@@@@@@@@.....++++++++++++++",
"+++++++++++++++++++++++......@@@@@@@@@@@@@@@@.....++++++++++++++",
"+++++++++++++++++++++++......@@@@@@@@@@@@@@@@.....++++++++++++++",
"++++++++++++++++++.....%%%%%%%%%%%%%%%%%%%%%%%%%%%......++++++++",
"++++++++++++++++++.....%%%%%%%%%%%%%%%%%%%%%%%%%%%......++++++++",
"++++++++++++++++++.....%%%%%%%%%%%%%%%%%%%%%%%%%%%......++++++++",
"++++++++++++++++++.....%%%%%%%%%%%%%%%%%%%%%%%%%%%......++++++++",
"++++++++++++++++++.....%%%%%%%%%%%%%%%%%%%%%%%%%%%......++++++++",
"+++++++++++++.....%%%%%%%%%%%     %%%%%%%%%%%     %%%%%%.....+++",
"+++++++++++++.....%%%%%%%%%%%     %%%%%%%%%%%     %%%%%%.....+++",
"+++++++++++++.....%%%%%%%%%%%     %%%%%%%%%%%     %%%%%%.....o++",
"+++++++++++++.....%%%%%%%%%%%     %%%%%%%%%%%     %%%%%%.....o++",
"+++++++oo++oo.....%%%%%%%%%%%     %%%%%%%%%%%     %%%%%%.....+++",
"+++++++oo++oo.....%%%%%%%%%%%%%%%%%%%%%%OOOOOOOOOO%%%%%%.....+++",
"+++++++++oo++.....%%%%%%%%%%%%%%%%%%%%%%OOOOOOOOOO%%%%%%.....+++",
"+++++++++oo++.....%%%%%%%%%%%%%%%%%%%%%%OOOOOOOOOO%%%%%%.....+++",
"+++++++++++++.....%%%%%%%%%%%%%%%%%%%%%%OOOOOOOOOO%%%%%%.....+++",
"+++++++++++++.....%%%%%%%%%%%%%%%%%%%%%%OOOOOOOOOO%%%%%%.....+++",
"+++++++++++++.....%%%%%%%%%%%%%%%%%%%%%%OOOOOOOOOO%%%%%%.....+++",
"+++++++......%%%%%%%%%%%%%%%%%%%%%%%%%%%%%%%%%%%%%%%%%%%.....+++",
"+++++++......%%%%%%%%%%%%%%%%%%%%%%%%%%%%%%%%%%%%%%%%%%%.....+++",
"+++++++......%%%%%%%%%%%%%%%%%%%%%%%%%%%%%%%%%%%%%%%%%%%.....+++",
"+++++++......%%%%%%%%%%%%%%%%%%%%%%%%%%%%%%%%%%%%%%%%%%%.....+++",
"+++++++......%%%%%%%%%%%%%%%%%%%%%%%%%%%%%%%%%%%%%%%%%%%.....+++",
"++.....%%%%%%%%%%%%%%%%%%%%%%%%%%%%%%%%%%%%%%%%%%%%%%%%%.....+++",
"++.....%%%%%%%%%%%%%%%%%%%%%%%%%%%%%%%%%%%%%%%%%%%%%%%%%.....+++",
"++.....%%%%%%%%%%%%%%%%%%%%%%%%%%%%%%%%%%%%%%%%%%%%%%%%%.....+++",
"++.....%%%%%%%%%%%%%%%%%%%%%%%%%%%%%%%%%%%%%%%%%%%%%%%%%.....+++",
"++.....%%%%%%%%%%%%%%%%%%%%%%%%%%%%%%%%%%%%%%%%%%%%%%%%%.....+++",
"++.....######%%%%%%%%%%%%%%%%XXXXX%%%%%%%%%%%%%%%%######.....+++",
"++.....######%%%%%%%%%%%%%%%%XXXXX%%%%%%%%%%%%%%%%######.....+++",
"++.....######%%%%%%%%%%%%%%%%XXXXX%%%%%%%%%%%%%%%%######.....+++",
"++.....######%%%%%%%%%%%%%%%%XXXXX%%%%%%%%%%%%%%%%######.....+++",
"++.....######%%%%%%%%%%%%%%%%XXXXX%%%%%%%%%%%%%%%%######.....+++",
"++.....######%%%%%%%%%%%%%%%%XXXXX%%%%%%%%%%%%%%%%######.....+++",
"+++++++......XXXXXXXXXXXXXXXX#####################......++++++++",
"+++++++......XXXXXXXXXXXXXXXX#####################......++++++++",
"+++++++......XXXXXXXXXXXXXXXX#####################......++++++++",
"+++++++......XXXXXXXXXXXXXXXX#####################......++++++++",
"+++++++......XXXXXXXXXXXXXXXX#####################......++++++++",
"+++++++++++++.....OOOOOOOOOOO.....OOOOOOOOOOO.....++++++++++++++",
"+++++++++++++.....OOOOOOOOOOO.....OOOOOOOOOOO.....++++++++++++++",
"+++++++++++++.....OOOOOOOOOOO.....OOOOOOOOOOO.....++++++++++++++",
"+++++++++++++.....OOOOOOOOOOO.....OOOOOOOOOOO.....++++++++++++++",
"+++++++++++++.....OOOOOOOOOOO.....OOOOOOOOOOO.....++++++++++++++",
"++++++++++++++++++...........+++++...........+++++++++++++++++++",
"++++++++++++++++++...........+++++...........+++++++++++++++++++",
"+++++++++$$++$$+++...........+++++...........+++++++++++++++++++",
"+++++++++$$++$$+++...........+++++...........+++++++++++++++++++",
"+++++++++++$$+++++...........+++++...........+++++++++++++++++++",
"+++++++++++$$+++++...........+++++...........+++++++++++++++++++",
"++++++++++++++++++++++++++++++++++++++++++++++++++++++++++++++++",
"++++++++++++++++++++++++++++++++++++++++++++++++++++++++++++++++",
"++++++++++++++++++++++++++++++++++++++++++++++++++++++++++++++++",
"++++++++++++++++++++++++++++++++++++++++++++++++++++++++++++++++",
"++++++++++++++++++++++++++++++++++++++++++++++++++++++++++++++++"
};
