/* XPM */
static char *result[] = {
/* columns rows colors chars-per-pixel */
"64 64 13 1 ",
"  c #754C60",
". c #5F7A79",
"X c #8A4A70",
"o c #A35B70",
"O c #AF6776",
"+ c #BD757E",
"@ c #6E967C",
"# c #A4C263",
"$ c #C0D470",
"% c #82A884",
"& c #D99A9A",
"* c #E8EEAA",
"= c #F3F4E7",
/* pixels */
"$$$$$$$$$$$$$$$$$$$$$$$$$$$$$$$$$$$$$$$$$$$$$$$$$$$$$$$$$$$$$$$$",
"$$$$$$$$$$$$$$$$$$$$$$$$$$$$$$$$$$$$$$$$$$$$$$$$$$$$$$$$$$$$$$$$",
"$$$$$$$$$$$$$$$$$$$$$$$$$$$$$$$$$$$$$$$##$$##$$$$$$$$$$$$$$$$$$$",
"$$$$$$$$$$$$$$$$$$$$$$$$$$$$$$$$$$$$$$$##$$##$$$$$$$$$$$$$$$$$$$",
"$$$$$$$$$$$$$$$$$$$$$$$$$$$$$$$$$$$$$$$$==============$$$$$$$$$$",
"$$$$$$$$$$$$$$$$$$$##$$##$$$$$$$$$$$$$$$==============$$$$$$$$$$",
"$$$$$$$$$$$$$$$$$$$##$$##$$$$$$$$$$$$$$$==============$$$$$$$$$$",
"$$$$$$$$$$$$$$$$$$$$$##$$$$$$$$$$$$$$$$$==============$$$$$$$$$$",
"$$$$$$$$$$$$$$$$$$$$$##$$$$=============...........===$$$$$$$$$$",
"$$$$$$$$$$$$$$$$$$$$$$$$$$$=============...........===$$$$$$$$$$",
"$$$$$$$$$$$$$$$$$$$$$$$$$$$=============...........===$$$$$$$$$$",
"$$$$$$$$$$$$$$$$$$$$$$$$$$$===    ===...%%%%%%%....===$$$$$$$$$$",
"$$$$$$$$$$$$$$$$$$$$$$$$$$$===    ===...%%%%%%%....===$$$$$$$$$$",
"$$$$$$$$$$$$$$$$$$$$$$$$$$$===    ===...%%%%%%%....===$$$$$$$$$$",
"$$$$$$$$$$$$$$$$$$$$$$$$$$$===    ===...%%%%%%%....===$$$$$$$$$$",
"$$$$$$$$$$$$$$$$$$$$==========    ...@@@@@@@%%%....===$$$$$$$$$$",
"$$$$$$$$$$$$$$$$$$$$==========    ...@@@@@@@%%%....===$$$$$$$$$$",
"$$$$$$$$$$$$$$$$$$$$==========    ...@@@@@@@%%%....===$$$$$$$$$$",
"$$$$$$$$$$$$$$$$$$$$==========    ...@@@@@@@%%%....===$$##$$##$$",
"$$$$$$$$$$$$$$$$$===oooooooooo    .............====$$$$$##$$##$$",
"$$$$$$$##$$##$$$$===oooooooooo    .............====$$$$$$$##$$$$",
"$$$$$$$##$$##$$$$===oooooooooo    .............====$$$$$$$##$$$$",
"$$$$$$$$$##$$$$$$===oooooooooo    .............====$$$$$$$$$$$$$",
"$$$$$$$$$##$$====ooo++++++++++oooooooOOOOOOOooo====$$$$$$$$$$$$$",
"$$$$$$$$$$$$$====ooo++++++++++oooooooOOOOOOOooo====$$$$$$$$$$$$$",
"$$$$$$$$$$$$$====ooo++++++++++oooooooOOOOOOOooo====$$$$$$$$$$$$$",
"$$$$$$$$$$===oooo+++&&&&++++++++++OOOOOOOOOOOOOoooo===$$$$$$$$$$",
"$$$$$$$$$$===oooo+++&&&&++++++++++OOOOOOOOOOOOOoooo===$$$$$$$$$$",
"$$$$$$$$$$===oooo+++&&&&++++++++++OOOOOOOOOOOOOoooo===$$$$$$$$$$",
"$$$$$$$$$$===oooo+++&&&&++++++++++OOOOOOOOOOOOOoooo===$$$$$$$$$$",
"$$$$$$$$$$===oooo++++++++++&&&++++OOOOOOOOOOOOOXXXX===$$$$$$$$$$",
"$$$$$$$$$$===oooo++++++++++&&&++++OOOOOOOOOOOOOXXXX===$$$$$$$$$$",
"$$$$$$$$$$===oooo++++++++++&&&++++OOOOOOOOOOOOOXXXX===$$$$$$$$$$",
"$$$$$$$$$$===oooo++++++++++&&&++++OOOOOOOOOOOOOXXXX===$$$$$$$$$$",
"$$$$$$$$$$===oooo+++++++++++++++++OOOOOOOOOOOOOXXXX===$$$$$$$$$$",
"$$$$$$$$$$===oooo+++++++++++++++++OOOOOOOOOOOOOXXXX===$$$$$$$$$$",
"$$$$$$$$$$===oooo+++++++++++++++++OOOOOOOOOOOOOXXXX===$$$$$$$$$$",
"$$$$$$$$$$===oooo+++++++++++++++++OOOOOOOOOOOOOXXXX===$$$$$$$$$$",
"$$$$$$$$$$===XXXX+++++++++++++OOOOOOOOOOOOOOOOOXXXX===$$$$$$$$$$",
"$$$$$$$$$$===XXXX+++++++++++++OOOOOOOOOOOOOOOOOXXXX===$$$$$$$$$$",
"$$$$$$$$$$===XXXX+++++++++++++OOOOOOOOOOOOOOOOOXXXX===$$$$$$$$$$",
"$$$$$$$$$$$$$====XXXOOOOOOOOOOOOOOOOOOOOOOOOXXX====$$$$$$$$$$$$$",
"$$$$$$$$$$$$$====XXXOOOOOOOOOOOOOOOOOOOOOOOOXXX====$$$$$$$$$$$$$",
"$$$$$$$$$$$$$====XXXOOOOOOOOOOOOOOOOOOOOOOOOXXX====$$$$$$$$$$$$$",
"$$$$$$$$$$$$$====XXXOOOOOOOOOOOOOOOOOOOOOOOOXXX====**$$$$$$$$$$$",
"$$$$$$$$$$$$$$$$$===XXXXOOOOOOXXXXOOOOOOXXXX===**$$**$$$$$$$$$$$",
"$$$$$$$$$$$$$$$$$===XXXXOOOOOOXXXXOOOOOOXXXX===$$**$$$$$$$$$$$$$",
"$$$$$$$$$$$$$$$$$===XXXXOOOOOOXXXXOOOOOOXXXX===$$**$$$$$$$$$$$$$",
"$$$$$$$$$$$$$$$$$===XXXXOOOOOOXXXXOOOOOOXXXX===$$$$$$$$$$$$$$$$$",
"$$$$$$$$$$$$$$$$$$$$====XXXXXX====XXXXXX====$$$$$$$$$$$$$$$$$$$$",
"$$$$$$$$$$$$$$$$$$$$====XXXXXX====XXXXXX====$$$$$$$$$$$$$$$$$$$$",
"$$$$$$$$$$$$$$$$$$$$====XXXXXX====XXXXXX====$$$$$$$$$$$$$$$$$$$$",
"$$$$$$$$$$$$$$$$$$$$====XXXXXX====XXXXXX====$$$$$$$$$$$$$$$$$$$$",
"$$$$$$$$$$$$$$$$$$$$$$$$======$$$$======$$$$$$$$$$$$$$$$$$$$$$$$",
"$$$$$$$$$$$$$$$$$$$$$$$$======$$$$======$$$$$$$$$$$$$$$$$$$$$$$$",
"$$$$$$$$$**$$**$$$$$$$$$======$$$$======$$$$$$$$$$$$$$$$$$$$$$$$",
"$$$$$$$$$**$$**$$$$$$$$$$$$$$$$$$$$$$$$$$$$$$$$$$$$$$$$$$$$$$$$$",
"$$$$$$$$$$$**$$$$$$$$$$$$$$$$$$$$$$$$$$$$$$$$$$$$$$$$$$$$$$$$$$$",
"$$$$$$$$$$$**$$$$$$$$$$$$$$$$$$$$$$$$$$$$$$$$$$$$$$$$$$$$$$$$$$$",
"$$$$$$$$$$$$$$$$$$$$$$$$$$$$$$$$$$$$$$$$$$$$$$$$$$$$$$$$$$$$$$$$",
"$$$$$$$$$$$$$$$$$$$$$$$$$$$$$$$$$$$$$$$$$$$$$$$$$$$$$$$$$$$$$$$$",
"$$$$$$$$$$$$$$$$$$$$$$$$$$$$$$$$$$$$$$$$$$$$$$$$$$$$$$$$$$$$$$$$",
"$$$$$$$$$$$$$$$$$$$$$$$$$$$$$$$$$$$$$$$$$$$$$$$$$$$$$$$$$$$$$$$$",
"$$$$$$$$$$$$$$$$$$$$$$$$$$$$$$$$$$$$$$$$$$$$$$$$$$$$$$$$$$$$$$$$"
};
