/* XPM */
static char *_5d2c9c01d3c4129a7e013a262cfae86oiW45qwaC2p1dw8h[] = {
/* columns rows colors chars-per-pixel */
"64 64 195 2 ",
"   c None",
".  c #695A67",
"X  c #735465",
"o  c #7D5366",
"O  c #7A5C6B",
"+  c #5B7574",
"@  c #5D7B76",
"#  c #5D7C78",
"$  c #5E656C",
"%  c #62686E",
"&  c #686D72",
"*  c #7A6872",
"=  c #6D7276",
"-  c #6E7678",
";  c #637D7A",
":  c #617776",
">  c #707178",
",  c #8D466A",
"<  c #8C4A6E",
"1  c #924C6D",
"2  c #8D5569",
"3  c #83576A",
"4  c #9C546E",
"5  c #98596D",
"6  c #8E4D71",
"7  c #8F5073",
"8  c #955271",
"9  c #9C5671",
"0  c #9D5A74",
"q  c #955978",
"w  c #995D7B",
"e  c #925E70",
"r  c #A45A6F",
"t  c #A0576F",
"y  c #A45D72",
"u  c #A95E71",
"i  c #91606F",
"p  c #846171",
"a  c #816D75",
"s  c #896675",
"d  c #936473",
"f  c #9A6B77",
"g  c #9D617D",
"h  c #857078",
"j  c #847077",
"k  c #A66174",
"l  c #AE6675",
"z  c #AB6876",
"x  c #A3647B",
"c  c #AA6679",
"v  c #AD6A7C",
"b  c #B16776",
"n  c #B16876",
"m  c #B56D79",
"M  c #BC747E",
"N  c #B6717D",
"B  c #C0777F",
"V  c #5E827A",
"C  c #638377",
"Z  c #64847B",
"A  c #668B7B",
"S  c #6A8D7A",
"D  c #68867C",
"F  c #6C927B",
"G  c #71947D",
"H  c #759B7E",
"J  c #9A6583",
"K  c #9D6986",
"L  c #8E7A82",
"P  c #9C7A85",
"I  c #A36C85",
"U  c #A16F8A",
"Y  c #A96F83",
"T  c #A67286",
"R  c #A5748D",
"E  c #AA758B",
"W  c #AC7588",
"Q  c #B17584",
"!  c #BF7780",
"~  c #B47986",
"^  c #BF7880",
"/  c #B47B89",
"(  c #A97A91",
")  c #C27C83",
"_  c #6B8581",
"`  c #6F8F83",
"'  c #778D8B",
"]  c #778A88",
"[  c #749385",
"{  c #7A9E81",
"}  c #7A928C",
"|  c #789685",
" . c #7F9491",
".. c #7DA382",
"X. c #819E8D",
"o. c #819692",
"O. c #849B94",
"+. c #8A9D99",
"@. c #8D9192",
"#. c #B7848F",
"$. c #AE8195",
"%. c #A58B93",
"&. c #AA8595",
"*. c #BD8B95",
"=. c #B28A9C",
"-. c #BD8B95",
";. c #B9939B",
":. c #A59196",
">. c #82A984",
",. c #81A784",
"<. c #8CA399",
"1. c #94A89F",
"2. c #B692A3",
"3. c #B996A5",
"4. c #BC9AA4",
"5. c #BD9CA9",
"6. c #B49FA3",
"7. c #99ABA4",
"8. c #96A9A2",
"9. c #A0AFAA",
"0. c #A8A5A4",
"q. c #BAA7A9",
"w. c #A3B3AC",
"e. c #ACBAB2",
"r. c #AAB7B1",
"t. c #B3BDB6",
"y. c #C68087",
"u. c #C78388",
"i. c #CA858A",
"p. c #CD8A8E",
"a. c #CF8D90",
"s. c #D18F92",
"d. c #C1949C",
"f. c #D29193",
"g. c #C59EA5",
"h. c #C7A0A6",
"j. c #C2A3AE",
"k. c #CCA7AB",
"l. c #CCABAE",
"z. c #C5A7AB",
"x. c #C3A7B2",
"c. c #C6ABB4",
"v. c #C9AEB5",
"b. c #CBB4BB",
"n. c #CCBBBC",
"m. c #C1B5B4",
"M. c #D2B5B6",
"N. c #D3B7B8",
"B. c #D5BCBB",
"V. c #BBC6BD",
"C. c #B6C1BA",
"Z. c #D9C1BF",
"A. c #D1BEC1",
"S. c #C4CCC4",
"D. c #D5C5C6",
"F. c #D9C5C3",
"G. c #DDCAC7",
"H. c #D7C7C8",
"J. c #D6CCC8",
"K. c #DACBCA",
"L. c #D3CAC5",
"P. c #CBD3C9",
"I. c #C8D1C7",
"U. c #D2D9CF",
"Y. c #D9D6CE",
"T. c #DFD4D0",
"R. c #D4DBD1",
"E. c #DADDD3",
"W. c #E0CFCA",
"Q. c #E2D3CD",
"!. c #E1D6D2",
"~. c #E5DBD4",
"^. c #E8DFD7",
"/. c #E5DED8",
"(. c #DDE2D7",
"). c #E4E5DA",
"_. c #EAE5DC",
"`. c #ECE9DF",
"'. c #E7EADE",
"]. c #EDEEE2",
"[. c #F0EEE2",
"{. c #EFF1E4",
"}. c #F1F2E5",
"|. c #F3F4E7",
" X c #F2F1E5",
".X c #F5F6E9",
"XX c #F5F6E9",
"oX c #F5F7E9",
"OX c #F7F8EA",
"+X c #F6F9EA",
"@X c #F9F9EC",
"#X c #F8FDEE",
"$X c #F9FDEE",
"%X c #FCFFF2",
"&X c #FFFFF8",
/* pixels */
"                                                                                                                                ",
"                                                                                                                                ",
"                                                                                                                                ",
"                                                                                                                                ",
"                                                                                    @X@X@X@X@X@X@X@X@XOX.X.X|.|.                ",
"                                                                                  ].].].].].].].].].].{.}.}.|.|.                ",
"                                                                                  E.R.U.U.U.U.U.U.U.R.E.).].}..X.X              ",
"                                                          OX@X                .X(.S.C.e.r.r.r.r.r.r.e.V.P.).{..XOX              ",
"                                                      |.|..X.XOXOX.X.X|..X@X@X{.R.t.8.O.o.o.o.o.o. .O.8.C.R.]..X                ",
"                                                    .X|.}.}.].`.`.].}.}.|.|.{.).I.w.o._ ; Z Z Z ; ; _ o.w.P.]..X                ",
"                                                    .X.X[.).T.J.J.T._. X{.'.E.I.t.1.} D C C C Z @ + # ' 9.P.`.OX                ",
"                                                    @X.X].Y.n.q.q.n.!.[.].R.V.w.1.O.| G F F F S C @ # ' 9.P.`.OX                ",
"                                                    #X.X_.L.6.P P 6.L._.(.S.7.o.' | { { ....{ H S C ; ' w.P.`.OX                ",
"                                                    %X.X).n.%.s s %.m.Y.P.e.O._ D F { ..>.>.,...G D Z } w.P.`.OX                ",
"                                                  %X%X+X_.n.%.p O L 0.t.e.8.} D C F H ..>.>.>...G C ; ' 9.P.`.OX$X              ",
"                                        #X#X#X#X#X%X%X#X`.n.%.p X * @.+.<.O.[ S S F H { ..>.>...G C ; ' 9.P.`.OX$X              ",
"                                      }.}.}.}.}.}..XOX.X).n.%.p X . = _ ` ` F F F F F H H ......G D Z } w.P.`.OX                ",
"                                    _.^.~.~.~.~.~.^._.^.K.x.%.p X . % : ; Z A F F F F F G H { { | [ } +.r.P.`.OX                ",
"                                  `.Q.F.B.N.N.N.N.B.B.N.l.;.P 3 X . $ + @ V Z A A A A A S F G | X.<.8.w.V.U.].                  ",
"                                OX_.F.k.d.*.-.*.*.*.*.*.#.T d o X . % + # # V Z Z Z Z Z Z Z D [ <.w.V.P.R.(.                    ",
"                              .X[.~.N.d.Q c c c v z z v c 0 2 o X . & : ; ; ; ; ; ; ; ; : @ ; ] 8.V.E.`.{.                      ",
"                              ^.Q.F.k.#.z r r r u u u u r 5 2 3 o O * = - - - - - - - - = & = ] 0.S.'.@X%X                      ",
"                          [.!.F.M.h.*.~ l k u l l l l l k r 5 2 2 3 p a a a a j h h h a a * * L 0.L.].%X&X                      ",
"                        +X`.G.l.*./ Q N m m m m m m m m n l y 5 5 5 e d d d f f f f f f d i d P 6.D.`.#X%X                      ",
"                      |.].~.B.d.Q z l m M M M M M M M M N m l u y y y y y k c c z l z c k r y Y ;.B.~.[.|.                      ",
"                      ~.Q.Z.k.-.v l n N ) ) ) ) M M M M N N n l k u u u u l l b b b b b l u u v -.k.Z.W.~.                      ",
"                  `.Q.B.v.g.*.~ m n N ) p.p.u.) M M M M M N m m n b l l l l b b b b b b l l l z ~ *.g.l.B.Q.`.                  ",
"                OX`.K.l.*./ Q m N M ) p.s.s.i.) M M M M M M N N N m n l l l l l b b b b l l l l z v / *.l.K.`.OX                ",
"                OX`.G.h./ c k b N ) i.a.f.s.p.) M M M ^ ) ^ M M N N m n l l n n l l l l l l l l u y k / h.G.`.OX                ",
"              #XOX`.G.g.Q u r b N ) u.p.a.p.u.) ! ^ ) ) y.) ) ) M N m n l n l l l l l l n n l l r 4 4 Y g.G.`.OX#X              ",
"              #XOX`.G.g.Q u r b N ) ) y.u.y.) ) ! ) u.p.p.i.y.) M m m n l l l l l l l l n n l k t 4 8 I 4.H.`.OX#X              ",
"                OX`.G.h.Q k u b N M ) ) ) ) M M ! ) p.s.f.p.u.) N m n n l l l l l l l l n n l k y 1 8 I 4.H.`.OX                ",
"                OX`.G.h.Q k u b N M M M M M M M M ) p.s.f.p.u.) N m n n l l l l l l l l n n l c 0 1 8 K 3.H.`.OX                ",
"                OX`.G.h./ k u b N M M M M M M M M ) u.p.p.i.y.) N m n n l l l l n l l l n n n c 9 1 7 K 3.H.`.OX                ",
"                OX`.G.h./ k u b N M M M M M M M M ) ) y.y.) ) ) M m n n l l n n n l l l n n l k 9 1 7 K 3.H.`.OX                ",
"                OX`.G.h.Q k u b N M M M M M M M M M ! ^ ) ) M M M m n n l l l l l l l l n n l k 0 1 8 K 3.H.`.OX                ",
"                OX`.G.g.W y y l N M B M M M M M M M M M M M M M N m n n b l l l l b b b n n l k 9 1 6 K 3.H.`.OX                ",
"              #XOX`.H.4.Y 9 4 l N B B M M M M M M M M M M N N N m m n n l l l l l l l b n n n k 4 1 6 J 3.H.`.OX#X              ",
"              #XOX`.H.3.I 8 4 k N M B M M M M M M M M M M N m m n n n n l l l l l l b b n n n k 4 1 6 J 3.H.`.OX#X              ",
"                OX`.H.5.T q 0 c m M M M M M M M M M M M N N m n n l l b l l l l l l b l l l l k 0 8 q U 5.H.`.OX                ",
"                OX`.K.x.=.R I v z n m m N N N N N N N N N m n n l l l n l l l l l n n l l k u k x I R =.x.K.`.OX                ",
"                    T.A.v.5.=.E x y u l m m m m m m m m m m n n n l l l l l l b n n n l u t 9 0 T =.5.v.D.T.                    ",
"                      /.T.H.x.$.g 8 9 y n n n n n n n n n n n n l l l l l l b n n n n l u 4 8 w $.j.H.!./.                      ",
"                      OX}.~.n.2.I w 0 y c l l l b n n n l l l l l l l l l l l b l l l k y 0 w I 2.n.~.}.OX                      ",
"                        #X`.H.x.=.( I x y u u l b n n n l k u y y u k l n n n l l u u y x I ( =.x.K.`.#X                        ",
"                            !.H.b.j.=.I 0 4 t k b n n n l u 0 4 4 0 k l n n n l k t 4 0 I =.j.b.H.!.                            ",
"                              _.~.H.j.( w 8 9 u l n n n l y 9 8 8 9 y l l n n l u 9 8 w ( j.H.~._.                              ",
"                              #X}.~.b.=.I w 0 k k k k k k x g g g g x k k k k k k 0 w I =.b.~.}.#X                              ",
"                                #X_.H.x.2.$.T x 0 4 4 4 y I ( $.$.( I y 4 4 4 0 x T $.2.x.H._.#X                                ",
"                                    !.K.n.j.=.I 8 1 , 1 0 E 3.v.v.3.E 0 1 , 1 8 I =.j.n.K.!.                                    ",
"                                      `.~.H.5.R q < , 6 w $.v.K.K.v.$.w 6 , < q R 5.H.~.`.                                      ",
"                                      #X}.!.v.=.U J J J R 3.A././.A.3.R J J J U =.v.!.}.#X                                      ",
"                                        OX/.D.x.5.3.2.3.5.v.K._._.K.v.5.3.2.3.5.x.D./.OX                                        ",
"                                            T.K.H.H.H.H.H.K.~.    ~.K.H.H.H.H.H.K.T.                                            ",
"                                              `.`.`.`.`.`.`.        `.`.`.`.`.`.`.                                              ",
"                                              OXOXOXOXOXOX            OXOXOXOXOXOX                                              ",
"                                                  #X#X#X                #X#X#X                                                  ",
"                                                                                                                                ",
"                                                                                                                                ",
"                                                                                                                                ",
"                                                                                                                                ",
"                                                                                                                                ",
"                                                                                                                                ",
"                                                                                                                                "
};
