/* XPM */
static char *e0888942c9be4463f3ed97d7be274e1148KgfNo6Qkoigqy7[] = {
/* columns rows colors chars-per-pixel */
"64 64 8 1 ",
"  c None",
". c #754C60",
"X c #C49A6C",
"o c #DCB98A",
"O c #AA7959",
"+ c #90625D",
"@ c #E8CFA6",
"# c white",
/* pixels */
"                        ..            ..                        ",
"                        XX.          .XX                        ",
"                        XX.          .XX                        ",
"                        XX.          .XX                        ",
"                        oo.          .oo                        ",
"                        OO.          .OO                        ",
"                        OO.          .OO                        ",
"                        ++.          .++                        ",
"                        OO.          .OO                        ",
"                        OO.          .OO                        ",
"                        OO.          .OO                        ",
"                        ++.          .++                        ",
"                        OO.          .OO                        ",
"                        OO.          .OO                        ",
"                        OO.          .OO                        ",
"                        ...          ...                        ",
"                        ..            ..                        ",
"                        XX.          .XX                        ",
"                        XX. ........ .XX                        ",
"                        XX..XXXXXXXX..XX                        ",
"                        oo.X++++++++X.oo                        ",
"                        OO.++++++++++.OO                        ",
"                        OO.++O++++O++.OO                        ",
"                        ++.++O++++O++.++                        ",
"                        OO.++O++++O++.OO                        ",
"                        OO.++O++++O++.OO                        ",
"                        OO.++O++++@@+.OO                        ",
"                        ++.++O++++O++.++                        ",
"                        OO.++O++++O++.OO                        ",
"                        OO.++O++++O++.OO                        ",
"                        OO.++++++++++.OO                        ",
"                        ................                        ",
"                        .. ..         ..                        ",
"                        XX.X.        .XX                        ",
"                        XX.X.        .XX                        ",
"                        XX.+.        .XX                        ",
"                        oo.+.        .oo                        ",
"                        OO.+.        .OO                        ",
"                        OO.+.        .OO                        ",
"                        ++.+.        .++                        ",
"                        OO.+.        .OO                        ",
"                        OO.+.        .OO                        ",
"                        OO.+.        .OO                        ",
"                        ++.+.        .++                        ",
"                        OO.+.        .OO                        ",
"                        OO.+.        .OO                        ",
"                        OO...        .OO                        ",
"                        ...          ...                        ",
"                        ..     ..     ..                        ",
"                        XX.  ..XX.   .XX                        ",
"                        XX...XX++.   .XX                        ",
"                        XX.XX++++.   .XX                        ",
"                        oo.++++O+.   .oo                        ",
"                        OO.++++O+.   .OO                        ",
"                        OO.+O++O+.   .OO                        ",
"                        ++.+O++O@.   .++                        ",
"                        OO.+O++@+.   .OO                        ",
"                        OO.+O++O+.   .OO                        ",
"                        OO.+O++O+.   .OO                        ",
"                        ++.+O++++.   .++                        ",
"                        OO.+O++++.   .OO                        ",
"                        OO.++++..    .OO                        ",
"                        OO.++..      .OO                        ",
"                        .....        ...                        "
};
