/* XPM */
static char *result[] = {
/* columns rows colors chars-per-pixel */
"64 64 8 1 ",
"  c #754C60",
". c #90625D",
"X c #AA7959",
"o c #C49A6C",
"O c #A4C263",
"+ c #C0D470",
"@ c #DCB98A",
"# c #E8CFA6",
/* pixels */
"        ++++++++++++++++++++++++++++++++++++++++++++++++        ",
"        ++++++++++++++++++++++++++++++++++++++++++++++++        ",
"        +++++++++++++++++++++++++++++++OO++OO+++++++++++        ",
"        +++++++++++++++++++++++++++++++OO++OO+++++++++++        ",
"oooooooo                                                oooooooo",
"oooooooo                                                oooooooo",
"oooooooo                                                oooooooo",
"oooooooo                                                oooooooo",
"oooooooo    oooooooooooooooooooooooooooooooooooooooo    oooooooo",
"oooooooo    oooooooooooooooooooooooooooooooooooooooo    oooooooo",
"oooooooo    oooooooooooooooooooooooooooooooooooooooo    oooooooo",
"oooooooo    oooooooooooooooooooooooooooooooooooooooo    oooooooo",
"oooooooo    ........................................    oooooooo",
"oooooooo    ........................................    oooooooo",
"oooooooo    ........................................    oooooooo",
"oooooooo    ........................................    oooooooo",
"@@@@@@@@    ........................................    @@@@@@@@",
"@@@@@@@@    ........................................    @@@@@@@@",
"@@@@@@@@    ........................................    @@@@@@@@",
"@@@@@@@@    ........................................    @@@@@@@@",
"XXXXXXXX    ....XXXX........XXXX........XXXX........    XXXXXXXX",
"XXXXXXXX    ....XXXX........XXXX........XXXX........    XXXXXXXX",
"XXXXXXXX    ....XXXX........XXXX........XXXX........    XXXXXXXX",
"XXXXXXXX    ....XXXX........XXXX........XXXX........    XXXXXXXX",
"XXXXXXXX    ....XXXX........XXXX........XXXX........    XXXXXXXX",
"XXXXXXXX    ....XXXX........XXXX........XXXX........    XXXXXXXX",
"XXXXXXXX    ....XXXX........XXXX........XXXX........    XXXXXXXX",
"XXXXXXXX    ....XXXX........XXXX........XXXX........    XXXXXXXX",
"........    ....XXXX........XXXX........XXXX.#######    ........",
"........    ....XXXX........XXXX........XXXX.#######    ........",
"........    ....XXXX........XXXX........XXXX.#######    ........",
"........    ....XXXX........XXXX........XXXX.#######    ........",
"XXXXXXXX    ....XXXX........XXXX........XXXX........    XXXXXXXX",
"XXXXXXXX    ....XXXX........XXXX........XXXX........    XXXXXXXX",
"XXXXXXXX    ....XXXX........XXXX........XXXX........    XXXXXXXX",
"XXXXXXXX    ....XXXX........XXXX........XXXX........    XXXXXXXX",
"XXXXXXXX    ....XXXX........XXXX........XXXX........    XXXXXXXX",
"XXXXXXXX    ....XXXX........XXXX........XXXX........    XXXXXXXX",
"XXXXXXXX    ....XXXX........XXXX........XXXX........    XXXXXXXX",
"XXXXXXXX    ....XXXX........XXXX........XXXX........    XXXXXXXX",
"XXXXXXXX    ....XXXX........XXXX........XXXX........    XXXXXXXX",
"XXXXXXXX    ....XXXX........XXXX........XXXX........    XXXXXXXX",
"XXXXXXXX    ....XXXX........XXXX........XXXX........    XXXXXXXX",
"XXXXXXXX    ....XXXX........XXXX........XXXX........    XXXXXXXX",
"........    ....XXXX........XXXX........XXXX........    ........",
"........    ....XXXX........XXXX........XXXX........    ........",
"........    ....XXXX........XXXX........XXXX........    ........",
"........    ....XXXX........XXXX........XXXX........    ........",
"XXXXXXXX    ....XXXX........XXXX........XXXX........    XXXXXXXX",
"XXXXXXXX    ....XXXX........XXXX........XXXX........    XXXXXXXX",
"XXXXXXXX    ....XXXX........XXXX........XXXX........    XXXXXXXX",
"XXXXXXXX    ....XXXX........XXXX........XXXX........    XXXXXXXX",
"XXXXXXXX    ........................................    XXXXXXXX",
"XXXXXXXX    ........................................    XXXXXXXX",
"XXXXXXXX    ........................................    XXXXXXXX",
"XXXXXXXX    ........................................    XXXXXXXX",
"XXXXXXXX    ........................................    XXXXXXXX",
"XXXXXXXX    ........................................    XXXXXXXX",
"XXXXXXXX    ........................................    XXXXXXXX",
"XXXXXXXX    ........................................    XXXXXXXX",
"                                                                ",
"                                                                ",
"                                                                ",
"                                                                "
};
