/* XPM */
static char *f49062c710fd4f5ceb5e8f14d1c7e0e2vfPBXLdmnqWDuOJz[] = {
/* columns rows colors chars-per-pixel */
"64 62 109 2 ",
"   c #C0D470",
".  c #C1D470",
"X  c #C1D570",
"o  c #BFD470",
"O  c #BDD26E",
"+  c #BBD16E",
"@  c #BDD26F",
"#  c #BED36F",
"$  c #BCD16E",
"%  c #BFD370",
"&  c #B5CD6B",
"*  c #AFC968",
"=  c #B6CE6C",
"-  c #BFD36F",
";  c #B9CF6D",
":  c #B3CB6A",
">  c #BCD26E",
",  c #BED26F",
"<  c #B2CB6A",
"1  c #AAC666",
"2  c #B1CB69",
"3  c #BAD06D",
"4  c #B4CC6A",
"5  c #ABC666",
"6  c #B0CA68",
"7  c #B0CA69",
"8  c #B9D06D",
"9  c #B7CE6C",
"0  c #B1CA69",
"q  c #B4CC6B",
"w  c #B2CB69",
"e  c #B3CC6A",
"r  c #B8CF6C",
"t  c #C1D571",
"y  c #AEC868",
"u  c #ABC766",
"i  c #B0C968",
"p  c #BBD06D",
"a  c #AEC968",
"s  c #B6CE6B",
"d  c #ADC867",
"f  c #ACC767",
"g  c #BFD36E",
"h  c #BFD46F",
"j  c #C2D573",
"k  c #C3D674",
"l  c #C2D572",
"z  c #C0D471",
"x  c #C1D572",
"c  c #C1D471",
"v  c #CCDC81",
"b  c #D3E18C",
"n  c #CBDB81",
"m  c #C7D97A",
"M  c #D2E08A",
"N  c #D0DE87",
"B  c #C5D777",
"V  c #C0D46F",
"C  c #D4E18C",
"Z  c #E0E99E",
"A  c #D5E18E",
"S  c #C6D879",
"D  c #CEDD85",
"F  c #DEE89C",
"G  c #D9E495",
"H  c #C7D97B",
"J  c #CDDC82",
"K  c #D6E290",
"L  c #D6E390",
"P  c #D5E28F",
"I  c #D7E391",
"U  c #D0DF88",
"Y  c #C6D878",
"T  c #DFE89D",
"R  c #D8E494",
"E  c #C9DA7D",
"W  c #BED36E",
"Q  c #D7E392",
"!  c #D1DF88",
"~  c #BED36D",
"^  c #CCDC82",
"/  c #C4D675",
"(  c #CADB7F",
")  c #CEDD84",
"_  c #C4D776",
"`  c #DBE597",
"'  c #DAE596",
"]  c #DDE79B",
"[  c #CFDE86",
"{  c #DAE595",
"}  c #D2DF8A",
"|  c #D8E493",
" . c #CFDE85",
".. c #DCE799",
"X. c #C8D97C",
"o. c #C7D87A",
"O. c #CBDB80",
"+. c #CADA7E",
"@. c #C3D675",
"#. c #D4E18D",
"$. c #D2E08B",
"%. c #C5D878",
"&. c #E0E89E",
"*. c #DEE79B",
"=. c #C9DA7C",
"-. c #C5D778",
";. c #D9E595",
":. c #D1DF89",
">. c white",
/* pixels */
"                                                                            . X .     X .                                       ",
"                                                                          o O + @   # + $ %                                     ",
"                                      . .       X .                     . # & * = - ; * : > .                                   ",
"                                    o @ > #   # > ,                     X , < 1 2 3 4 5 6 $ .                                   ",
"                                  . O 4 7 8 - 9 7 & # .                   - 3 & 0 * 7 4 ; #                                     ",
"                                  . $ * 1 q + w 1 w @ X                     . # e 1 7 >                                         ",
"                                    , 9 < 7 7 0 e ; -                       X   8 4 r % t                                       ",
"                                        $ 7 1 < @                               o - %                                           ",
"                                      t - 9 < r   t                             . X .                                           ",
"                                          # # -                                                                                 ",
"                                          . X .                                                                                 ",
"                                                                                                                                ",
"                                                                                                                                ",
"                                                                                                                                ",
"                                                                                                                                ",
"                                                                                                                .       .       ",
"                                                                                                            o O 3 O   # + $ -   ",
"            . X       . .                                                                                 . # & y & # ; * w $ . ",
"            @ $ #   # $ @ %                                                                               X # e 5 0 8 4 u i + X ",
"        . # & i 9 - ; 7 e O .                                                                               % p & 0 a 6 4 ; #   ",
"        X @ w 1 w 3 4 1 * $ .                                                                                 . # 4 1 6 $       ",
"          - ; e 0 6 7 : r #                                                                                   X   3 & r - X     ",
"              @ : 1 7 $                                                                                           o - %         ",
"            t   ; : 9 - t                                                             X .     . .                   X .         ",
"                - # -                                                                 % o     % %                               ",
"                . X .                                                               3 & r - @ = s >                             ",
"                                                                                X % & 5 6 $ 8 d d ;   .                         ",
"                                                                                . o r * * 4 e * 0 3                             ",
"                                                                                    # + 4 f d = O %                             ",
"                                                                                    X . ; * 0 $ t .                             ",
"                                                                                        # 3 + -                                 ",
"                                                                                                                                ",
"                                                                                                                                ",
"                                                                                                                                ",
"                                                                                                                                ",
"                                                                                                                                ",
"                                              - g -   h g g                                                                     ",
"                                              j k l z x k j c                                                                   ",
"                                          - j v b n x m M N B h V                                                               ",
"                                          g k C Z A S D F G H - h                                                               ",
"                                          - j J K L b P I U B h V                           V - - V   - g h                     ",
"                                              x Y b T R E j c                                 c c     z c                       ",
"                                              W   v Q ! k ~ h                           V   B J ^ / j ( ) m c h                 ",
"                                              V   k Y _ t V                             -   ( ` ' E Y K ] [ x g                 ",
"                                                  h g -                                 h   E I { } N | G J t -                 ",
"                                                    V                                       j S  .' ..M X.k                     ",
"                                                                                            - g o.I ' O.V g                     ",
"                                                                                            V - j X.+._ V h                     ",
"                                                                                                    V                           ",
"                                                                                                  h - V                         ",
"                                                                                                                                ",
"                h g -   V g g V                                                                                                 ",
"                j @.j z x k k t                                                                                                 ",
"            - x v #.J j o.$.! %.V V                                                                                             ",
"            g j $.&.K o.) *.' =.h h                                                                                             ",
"            - x O.P L #.P I ! -.V V                                                                                             ",
"                t B M T ;.+.j z                                                                                                 ",
"                W V O.K :.@.~ h                                                                                                 ",
"                    k B _ t                                                                                                     ",
"                    h g -                                                                                                       ",
"                      V                                                                                                         ",
"                                                                                                                                "
};
