/* XPM */
static char *result[] = {
/* columns rows colors chars-per-pixel */
"64 64 7 1 ",
"  c #A4C263",
". c #C0D470",
"X c #5E508E",
"o c #776DA6",
"O c #E8EEAA",
"+ c #DCD4DD",
"@ c #F1F1C1",
/* pixels */
"............XXXXXXXXXXXX................XXXXXXXXXXXX............",
"............XXXXXXXXXXXX................XXXXXXXXXXXX............",
"............XXXXXXXXXXXX............... XXXXXXXXXXXX............",
"............XXXXXXXXXXXX............... XXXXXXXXXXXX............",
"........XXXX@@@@@@@@@@@@XXXX........XXXX@@@@@@@@@@@@XXXX........",
"........XXXX@@@@@@@@@@@@XXXX........XXXX@@@@@@@@@@@@XXXX........",
"........XXXX@@@@@@@@@@@@XXXX........XXXX@@@@@@@@@@@@XXXX........",
"........XXXX@@@@@@@@@@@@XXXX........XXXX@@@@@@@@@@@@XXXX........",
"........XXXX@@@@@@@@@@@@XXXXXXXXXXXXXXXX@@@@@@@@@@@@XXXX........",
"........XXXX@@@@@@@@@@@@XXXXXXXXXXXXXXXX@@@@@@@@@@@@XXXX........",
"........XXXX@@@@@@@@@@@@XXXXXXXXXXXXXXXX@@@@@@@@@@@@XXXX........",
"........XXXX@@@@@@@@@@@@XXXXXXXXXXXXXXXX@@@@@@@@@@@@XXXX........",
"........XXXX@@@@@@@@@@@@++++++++++++++++@@@@@@@@@@@@XXXX........",
"........XXXX@@@@@@@@@@@@++++++++++++++++@@@@@@@@@@@@XXXX........",
"........XXXX@@@@@@@@@@@@++++++++++++++++@@@@@@@@@@@@XXXX........",
"........XXXX@@@@@@@@@@@@++++++++++++++++@@@@@@@@@@@@XXXX........",
"........XXXX@@@@@@@@@@@@@@@@@@@@@@@@@@@@@@@@@@@@@@@@XXXX........",
"........XXXX@@@@@@@@@@@@@@@@@@@@@@@@@@@@@@@@@@@@@@@@XXXX........",
"........XXXX@@@@@@@@@@@@@@@@@@@@@@@@@@@@@@@@@@@@@@@@XXXX  ..  ..",
"........XXXX@@@@@@@@@@@@@@@@@@@@@@@@@@@@@@@@@@@@@@@@XXXX  ..  ..",
"....... XXXX@@@@@@@@@@@@@@@@@@@@@@@@@@@@@@@@@@@@@@@@XXXX..  ....",
"....... XXXX@@@@@@@@@@@@@@@@@@@@@@@@@@@@@@@@@@@@@@@@XXXX..  ....",
"........XXXX@@@@@@@@@@@@@@@@@@@@@@@@@@@@@@@@@@@@@@@@XXXX........",
"........XXXX@@@@@@@@@@@@@@@@@@@@@@@@@@@@@@@@@@@@@@@@XXXX........",
"....XXXXXXXX@@@@@@@@@@@@@@@@@@@@@@@@@@@@@@@@@@@@@@@@XXXXXXXX....",
"....XXXXXXXX@@@@@@@@@@@@@@@@@@@@@@@@@@@@@@@@@@@@@@@@XXXXXXXX....",
"....XXXXXXXX@@@@@@@@@@@@@@@@@@@@@@@@@@@@@@@@@@@@@@@@XXXXXXXX....",
"....XXXXXXXX@@@@@@@@@@@@@@@@@@@@@@@@@@@@@@@@@@@@@@@@XXXXXXXX....",
"........XXXX@@@@@@@@@@@@@@@@@@@@@@@@@@@@@@@@@@@@@@@@XXXX........",
"........XXXX@@@@@@@@@@@@@@@@@@@@@@@@@@@@@@@@@@@@@@@@XXXX........",
"........XXXX@@@@@@@@@@@@@@@@@@@@@@@@@@@@@@@@@@@@@@@@XXXX........",
"........XXXX@@@@@@@@@@@@@@@@@@@@@@@@@@@@@@@@@@@@@@@@XXXX........",
"....XXXXXXXX@@@@@@@@@@@@@@@@@@@@@@@@@@@@@@@@@@@@@@@@XXXXXXXX....",
"....XXXXXXXX@@@@@@@@@@@@@@@@@@@@@@@@@@@@@@@@@@@@@@@@XXXXXXXX....",
"....XXXXXXXX@@@@@@@@@@@@@@@@@@@@@@@@@@@@@@@@@@@@@@@@XXXXXXXX....",
"....XXXXXXXX@@@@@@@@@@@@@@@@@@@@@@@@@@@@@@@@@@@@@@@@XXXXXXXX....",
"........XXXX@@@@@@@@@@@@@@@@@@@@@@@@@@@@@@@@@@@@@@@@XXXX........",
"........XXXX@@@@@@@@@@@@@@@@@@@@@@@@@@@@@@@@@@@@@@@@XXXX........",
"........XXXX@@@@@@@@@@@@@@@@@@@@@@@@@@@@@@@@@@@@@@@@XXXX........",
"........XXXX@@@@@@@@@@@@@@@@@@@@@@@@@@@@@@@@@@@@@@@@XXXX........",
"........XXXXXXXXXXXXooooooooooooooooooooooooXXXXXXXX............",
"........XXXXXXXXXXXXooooooooooooooooooooooooXXXXXXXX............",
"........XXXXXXXXXXXXooooooooooooooooooooooooXXXXXXXX............",
"........XXXXXXXXXXXXooooooooooooooooooooooooXXXXXXXX............",
"........XXXX++++@@@@ooooooooXXXXXXXXooooooooXXXXXXXXO...........",
"........XXXX++++@@@@ooooooooXXXXXXXXooooooooXXXXXXXXO...........",
"........XXXX++++@@@@ooooooooXXXXXXXXooooooooXXXXXXXX............",
"........XXXX++++@@@@ooooooooXXXXXXXXooooooooXXXXXXXX............",
"............XXXX@@@@@@@@XXXX@@@@@@@@XXXX@@@@@@@@++++XXXX........",
"............XXXX@@@@@@@@XXXX@@@@@@@@XXXX@@@@@@@@++++XXXX........",
"............XXXX@@@@@@@@XXXX@@@@@@@@XXXX@@@@@@@@++++XXXX........",
"............XXXX@@@@@@@@XXXX@@@@@@@@XXXX@@@@@@@@++++XXXX........",
"................XXXX@@@@@@@@@@@@@@@@@@@@XXXX@@@@++++XXXX........",
"................XXXX@@@@@@@@@@@@@@@@@@@@XXXX@@@@++++XXXX........",
"................XXXX@@@@@@@@@@@@@@@@@@@@XXXX@@@@++++XXXX........",
".........OO..OO.XXXX@@@@@@@@@@@@@@@@@@@@XXXX@@@@++++XXXX........",
".........OO..OO.XXXX++++++++XXXXXXXXXXXXXXXXXXXXXXXXXXXX........",
"...........OO...XXXX++++++++XXXXXXXXXXXXXXXXXXXXXXXXXXXX........",
"...........OO...XXXX++++++++XXXXXXXXXXXXXXXXXXXXXXXXXXXX........",
"................XXXX++++++++XXXXXXXXXXXXXXXXXXXXXXXXXXXX........",
"....................XXXXXXXX....................................",
"....................XXXXXXXX....................................",
"....................XXXXXXXX....................................",
"....................XXXXXXXX...................................."
};
