/* XPM */
static char *_f6ef7b2dd7d4d1a95ea57ffd788fd1ezVzLvqX4gYMYqexL[] = {
/* columns rows colors chars-per-pixel */
"56 64 199 2 ",
"   c None",
".  c #DCD37F",
"X  c #E6DD7D",
"o  c #ECE37B",
"O  c #F1E87B",
"+  c #4B3B8A",
"@  c #54458E",
"#  c #554690",
"$  c #564890",
"%  c #5C4E92",
"&  c #5E5093",
"*  c #6E5C96",
"=  c #6C5E9B",
"-  c #65579A",
";  c #705F97",
":  c #6E6197",
">  c #6E619B",
",  c #706197",
"<  c #716498",
"1  c #78699E",
"2  c #7D729C",
"3  c #6C63A9",
"4  c #766AA3",
"5  c #796DA1",
"6  c #7067AA",
"7  c #756CAA",
"8  c #786FA9",
"9  c #7467A2",
"0  c #7E73A4",
"q  c #7C72A9",
"w  c #84759F",
"e  c #8E739B",
"r  c #84799E",
"t  c #8C7C9F",
"y  c #847BA4",
"u  c #8C7CA2",
"i  c #8175A9",
"p  c #867CAC",
"a  c #897EAD",
"s  c #8576A2",
"d  c #917FA5",
"f  c #8B829C",
"g  c #9D9498",
"h  c #968D99",
"j  c #B4AB8D",
"k  c #BEB695",
"l  c #ABA298",
"z  c #8D84A3",
"x  c #8780AD",
"c  c #8A80AB",
"v  c #9283A2",
"b  c #938AA3",
"n  c #968FAF",
"m  c #9B89A9",
"M  c #9D95A6",
"N  c #9D95AC",
"B  c #9F98AF",
"V  c #8E86B0",
"C  c #9589B5",
"Z  c #998FB0",
"A  c #9F99B3",
"S  c #9C95B2",
"D  c #B28DA2",
"F  c #A098A6",
"G  c #A19AA9",
"H  c #B493A4",
"J  c #B69CA7",
"K  c #B19BAF",
"L  c #A39DB2",
"P  c #A49ABE",
"I  c #AFA9AC",
"U  c #AEA7AA",
"Y  c #B2ACAC",
"T  c #B8ACAC",
"R  c #B7A5AA",
"E  c #BAB5AF",
"W  c #BAB5AF",
"Q  c #AFA9B2",
"!  c #ADA4BE",
"~  c #B9A2B1",
"^  c #B3ACB6",
"/  c #BDACB3",
"(  c #B2A9BB",
")  c #B6B1B3",
"_  c #BBB4B1",
"`  c #BDB8B0",
"'  c #BAB6B8",
"]  c #C4BC92",
"[  c #D4A3A7",
"{  c #D5A7A8",
"}  c #D6AEAB",
"|  c #C3BEAB",
" . c #D8BAAF",
".. c #C1BCB2",
"X. c #C2BEB9",
"o. c #C7B6B7",
"O. c #DBBDB0",
"+. c #E7B2AC",
"@. c #EBB4AC",
"#. c #EABDAF",
"$. c #DDD58A",
"%. c #D1C98F",
"&. c #E3DD94",
"*. c #EBE381",
"=. c #ECE58A",
"-. c #F1EA8E",
";. c #F4EC83",
":. c #EBE597",
">. c #F1EC93",
",. c #F3EE9C",
"<. c #F6F198",
"1. c #D6D1AB",
"2. c #C5C1B4",
"3. c #CBC7B4",
"4. c #CECAB5",
"5. c #C5C1B8",
"6. c #CDC9BA",
"7. c #D2CEB5",
"8. c #DDCAB4",
"9. c #DEC5BE",
"0. c #D8CABB",
"q. c #DDD4B7",
"w. c #DEDBBA",
"e. c #D3D0BA",
"r. c #CBC6AF",
"t. c #EFC1AF",
"y. c #ECC5B1",
"u. c #EDCCB3",
"i. c #E1CCBF",
"p. c #E1C7BF",
"a. c #F0CEB4",
"s. c #EED1B5",
"d. c #E1D4BD",
"f. c #E1DEBB",
"g. c #ECDBB7",
"h. c #F3D3B5",
"j. c #F1DEB9",
"k. c #E1DBA0",
"l. c #E6E2A6",
"z. c #F0EDAA",
"x. c #F5F1A5",
"c. c #F5F3AD",
"v. c #E3E1BC",
"b. c #E9E7BD",
"n. c #ECEABD",
"m. c #E3E0B4",
"M. c #F1EFB6",
"N. c #F4E3BB",
"B. c #F9E6BC",
"V. c #F2ECBE",
"C. c #FAEEBE",
"Z. c #F5F3B5",
"A. c #F4F3BE",
"S. c #ACA2C2",
"D. c #B7AEC2",
"F. c #BEB4CB",
"G. c #C9C2C3",
"H. c #D5CFCC",
"J. c #DAD5C4",
"K. c #DCD9C4",
"L. c #D9D4CD",
"P. c #DDD8CF",
"I. c #CBC3D3",
"U. c #D1C9D5",
"Y. c #DDD4DE",
"T. c #DFD8DA",
"R. c #F4DDC5",
"E. c #F8DFC6",
"W. c #E5DED4",
"Q. c #E1DADA",
"!. c #EDEBC4",
"~. c #E6E3C9",
"^. c #EBE7CB",
"/. c #EDEACB",
"(. c #EAE7C0",
"). c #F0EEC4",
"_. c #F1EEC3",
"`. c #FDEDC6",
"'. c #F4E8C7",
"]. c #F3F2C0",
"[. c #F2F1C0",
"{. c #F6F5C1",
"}. c #F4F3C0",
"|. c #FAF5C2",
" X c #F7F9C2",
".X c #F9F9C2",
"XX c #E5E0D3",
"oX c #E6E1D2",
"OX c #EAE5D6",
"+X c #E7E0DE",
"@X c #E8E1DE",
"#X c #F1EDDA",
"$X c #F5F2D0",
"%X c #F5F0DA",
"&X c #FBF8D1",
"*X c #DCD3E0",
"=X c #DBD3E0",
"-X c #E0D9E0",
";X c #E2DAE1",
/* pixels */
"                @ @ @ @ @ @ @ @ @ @ @ @                                 @ @ @ @ @ @ @ @ @ @ @ @                 ",
"                % % % % % % % % % % % %                                 % % % % % % % % % % % %                 ",
"                : < < < < < < < < < < :                                 : < < < < < < < < < < :                 ",
"              2 u z b b b b b b b b z t 2                             2 t z b b b b b b b b z u 2               ",
"          % : u F Y E ` ` E E E E W Y M t : %                     % : t M Y W E E E E ` ` E Y F u : %           ",
"        @ % < z Y 4.w.f.f.w.w.f.f.w.4.Y z < % @                 @ % < z Y 4.w.f.f.w.w.f.f.w.4.Y z < % @         ",
"        # % < v T q.V.V.V.V.V.A.{.V.w.W b < % @                 @ % < b W w.V.{.A.V.V.V.V.V.q.T v < % #         ",
"        # % , v R 8.N.B.B.N.B.C.|.{.f.E b : $ @ @             @ @ $ : b E f.{.|.C.B.N.B.B.N.8.R v , % #         ",
"        # % ; t J O.u.h.h.h.h.N.C.A.f.E b : $ @ @ @ @ @ @ @ @ @ @ $ : b E f.A.C.N.h.h.h.h.u.O.J t ; % #         ",
"        # % * e H } #.t.#.#.y.h.B.V.w.` b < & # $ % % % % % % $ # & < b ` w.V.B.h.y.#.#.t.#.} H e * % #         ",
"        # % * e D { +.@.@.@.#.a.N.V.f...N 0 > = = > > > > > > = = > 0 N ..f.V.N.a.#.@.@.@.+.{ D e * % #         ",
"        # % * e D [ +.@.@.@.#.u.j.V.v.6.^ Z c p p a a a a a a p p c Z ^ 6.v.V.j.u.#.@.@.@.+.[ D e * % #         ",
"        # % * e D [ +.@.@.@.#.u.j.V.(.K.G.D.S.S.S.S.S.S.S.S.S.S.S.S.D.G.K.(.V.j.u.#.@.@.@.+.[ D e * % #         ",
"        # % * e D { +.@.@.@.#.u.j.V.!.~.L.U.I.I.I.I.I.I.I.I.I.I.I.I.U.L.~.!.V.j.u.#.@.@.@.+.{ D e * % #         ",
"        # % * e H } #.t.#.#.y.s.N.V.).^.XXT.Y.Y.Y.Y.Y.Y.Y.Y.Y.Y.Y.Y.T.XX^.).V.N.s.y.#.#.t.#.} H e * % #         ",
"        # % ; t J  .u.a.a.u.s.g.N.V.)./.OXQ.;X;X;X;X;X;X;X;X;X;X;X;XQ.OX/.).V.N.g.s.u.a.a.u. .J t ; % #         ",
"        # % , v R 8.g.N.j.j.j.N.V.V.)./.oXQ.;X;X;X;X;X;X;X;X;X;X;X;XQ.oX/.).V.V.N.j.j.j.N.g.8.R v , % #         ",
"        # % < v T q.V.V.V.V.V.V.A.[.).^.XXQ.Y.Y.Y.Y.Y.Y.Y.Y.Y.Y.Y.Y.Q.XX^.).[.A.V.V.V.V.V.V.q.T v < % #         ",
"        @ % < b W w.[. X{.}.[.A.A.[.).^.XXQ.Y.Y.Y.Y.Y.Y.Y.Y.Y.Y.Y.Y.Q.XX^.).[.A.A.[.}.{. X[.w.W b < % @         ",
"        @ % < b E w.[..X X{.}.{.A.[.).^.W.T.Y.*X*XY.Y.Y.Y.Y.Y.*X*XY.T.W.^.).[.A.{.}.{. X.X[.w.E b < % @         ",
"        @ % < b E w.[..X X{.}.{.A.[.).^.W.T.Y.=X*XY.Y.Y.Y.Y.Y.*X=XY.T.W.^.).[.A.{.}.{. X.X[.w.E b < % @         ",
"        @ % < b W w.[..X{.}.[.A.A.[.).^.XXQ.Y.Y.Y.Y.Y.Y.Y.Y.Y.Y.Y.Y.Q.XX^.).[.A.A.[.}.{..X[.w.W b < % @         ",
"        # % < b E w.[..X{.}.}.A.A.[.)./.XXW.Q.T.T.Q.Q.Q.Q.Q.Q.T.T.Q.W.XX/.).[.A.A.}.}.{..X[.w.E b < % #         ",
"      # # % < b E w.[..X.X{.{.{.{.[.[.!.^.XXXXW.W.XXXXXXXXXXXXW.W.XXXX^.!.[.[.{.{.{.{..X.X[.w.E b < % # #       ",
"% % % # # % < b E w.[..X.X.X X{.{.}.[.).!./.^.^.^.^.^.^.^.^.^.^.^.^./.!.).[.}.{.{. X.X.X.X[.w.E b < % # # % % % ",
"% % % $ # % < b E w.[. X{.[.[.[.[.[.[.[.[.).).).).).).).).).).).).).).[.[.[.[.[.[.[.[.{. X[.w.E b < % # $ % % % ",
"% % % $ # % < b E w.n.V.b.f.f.v.n.V.[.}.[.[.[.[.[.[.[.[.[.[.[.[.[.[.[.[.}.[.V.n.v.f.f.b.V.n.w.E b < % # $ % % % ",
"% % % # # % < b ` w.n.f.4.....3.w.n.[.{.{.A.A.A.A.A.A.A.A.A.A.A.A.A.A.{.{.[.n.w.3.....4.f.n.w.` b < % # # % % % ",
"      # # % < b ` w.v.7.Y M M I 3.v.[.{.{.A.A.A.A.A.A.A.A.A.A.A.A.A.A.{.{.[.v.3.I M M Y 7.v.w.` b < % # #       ",
"        # % < b ` w.f.2.F r r M ..f.[. X{.}.[.[.[.[.[.[.[.[.[.[.[.[.}.{. X[.f...M r r F 2.f.w.` b < % #         ",
"        # % < b ` w.f.2.F r r M ..f.[. X{.}.[.[.[.[.[.[.[.[.[.[.[.[.}.{. X[.f...M r r F 2.f.w.` b < % #         ",
"      # # % < b ` w.v.7.Y M M I 3.v.[.{.{.[.[.[.[.[.[.[.[.[.[.[.[.[.[.{.{.[.v.3.I M M Y 7.v.w.` b < % # #       ",
"% % % # # % < b ` w.n.f.4.....3.w.n.[.{.{.[.[.[.[.[.[.[.[.[.[.[.[.[.[.{.{.[.n.w.3.....4.f.n.w.` b < % # # % % % ",
"% % % $ # % < b E w.n.V.b.f.f.v.n.V.[.}.}.[.[.[.[.[.[.[.[.[.[.[.[.[.[.}.}.[.V.n.v.f.f.b.V.n.w.E b < % # $ % % % ",
"% % % $ # % < b ` w.). X}.`.).[.[.[.}.}.}.}.}.}.}.}.}.}.}.}.}.}.}.}.}.}.}.}.[.[.[.).`.}. X).w.` b < % # $ % % % ",
"% % % # # % < v _ d.`.|.|.|.|.|. X{.{.{.{.{.{.{.{.{.{.{.{.{.{.{.{.{.{.{.{.{.{. X|.|.|.|.|.`.d._ v < % # # % % % ",
"      # # % < v / d.'.`.`.`.`.`.|. X{.{.{.{.{.{.{.{.{.{.{.{. X{.{.{.{.{.{.{. X|.`.`.`.`.`.'.d./ v < % # #       ",
"        @ % < v ~ 9.R.E.E.R.R.'._.).[.[.[.[.[.[.[.[.[.[.[.[.[.[.[.[.[.[.[.[.)._.'.E.E.E.E.R.9.~ v < % @         ",
"        @ % < u K o.9.p.p.9.9.i.d.f.v.v.v.v.v.v.v.v.v.f.f.f.v.v.v.v.v.v.v.v.f.d.i.9.9.p.p.9.o.K u < % @         ",
"          % * s m K ~ ~ ~ ~ ~ / o...5.5.5.5.5.5.X.X.X.X.X.X...X.5.5.5.5.5.5...o./ ~ ~ ~ ~ ~ K m s * %           ",
"              1 w u u u u u d m N L L L L L L L L L L A A A L L L L L L L L L N m d u u u u u w 1               ",
"                : < < < ; < < 5 0 p p x x p x x p p x x x x x p p p p x x p p 0 5 < < < < < < :                 ",
"                = > > < < < < 1 4 7 7 7 7 7 8 q i y y y c p p p q q 7 7 7 7 7 4 1 < < < : > > =                 ",
"              4 q p p c z z z y q 6 3 3 3 3 4 0 f h g F G B S V p 7 3 3 3 3 6 q y z z z a p p q 4               ",
"          % = i C P ! ( ^ ) I N c 8 3 3 3 3 5 f g j k ] | ..) L V q 3 3 3 3 8 c N I ) ^ ( ! P C i = %           ",
"        @ % > p P F.I.L.K.w.7.` B p 7 6 6 7 y g j %.$.&.l.f.e.' A p 7 6 6 7 p B ` 7.w.K.L.I.F.P p > % @         ",
"        @ % > a S.I.Q.OX$X).v.6.Q n p p p p b l ] . *.-.,.z.m.3.Q n p p p p n Q 6.v.).$XOXQ.I.S.a > % @         ",
"        @ % > a S.U.@X%X&X.X).w.5.^ L A A L U k %.X o ;.<.,.l.1...Q L A A L ^ 5.w.)..X&X%X@XU.S.a > % @         ",
"        @ % > a S.U.@X%X&X.X{.n.w.6.5.X.X.5.r.1.$.X o O ;.-.:.k.1.3.5.X.X.5.6.w.n.{..X&X%X@XU.S.a > % @         ",
"        @ % > a S.I.T.OX/.).).n.b.v.v.f.v.v.m.l.:.*.o o o *.=.:.l.m.v.f.f.v.v.b.n.).)./.OXT.I.S.a > % @         ",
"        @ % > p P F.I.H.J.w.f.b.n.V.[.[.[.A.Z.z.:.=.*.o o *.=.:.z.Z.A.[.[.[.V.n.b.f.w.J.H.I.F.P p > % @         ",
"          % = i C P ! ( ^ ` ..7.v.V. X.X.X.XA.Z.x.,.>.>.-.>.>.x.c.A..X.X.X XV.v.7...` ^ ( ! P C i = %           ",
"              4 i p a c z b F W 7.n.A..X.XA.A.Z.Z.c.x.x.x.x.c.c.Z.A. X.X.XA.n.7.W F b z c a p i 4               ",
"                = > > = = < r F ..f.[..X{.A.A.A.A.M.M.M.M.M.M.A.A.[.}.{..X[.f...F r < = = > > =                 ",
"                % % % $ # & < b ` w.).{.{.).!.n.v.f.w.w.w.w.f.v.(.!.).{.{.).w.` b < & # $ % % %                 ",
"                  @ @ @ @ # = z ^ J./.$X$X/.~.K.6...` ) ) ` ..6.K.~./.$X$X/.J.^ z = # @ @ @ @                   ",
"                      @ @ $ = c ( H.OX#X#XOXP.G.^ N b z z b N ^ G.P.OX#X#XOXH.( c = $ @ @                       ",
"                        @ % > a ! I.T.+X+XT.U.D.Z 0 < * * < 0 Z D.U.T.+X+XT.I.! a > % @                         ",
"                        @ % > p P F.I.U.U.I.F.P a > % @ @ % > a P F.I.U.U.I.F.P p > % @                         ",
"                          % = i C P S.S.S.S.P C q - # + + # - q C P S.S.S.S.P C i = %                           ",
"                              4 i p a a a a p i 9             9 i p a a a a p i 4                               ",
"                                = > > > > > > =                 = > > > > > > =                                 ",
"                                % % % % % % % %                 % % % % % % % %                                 ",
"                                @ @ @ @ @ @ @ @                 @ @ @ @ @ @ @ @                                 "
};
