/* XPM */
static char *_11c4fffaded468bd6b63f2ef9528e2efMC5INBWRk3w9q76[] = {
/* columns rows colors chars-per-pixel */
"64 67 194 2 ",
"   c None",
".  c #E4DC7E",
"X  c #ECE47A",
"o  c #F0E87B",
"O  c #483989",
"+  c #4F418D",
"@  c #53458E",
"#  c #57488E",
"$  c #544690",
"%  c #554890",
"&  c #5A4C92",
"*  c #5F5193",
"=  c #615394",
"-  c #685A9B",
";  c #6E6297",
":  c #6E619D",
">  c #73659A",
",  c #7C6698",
"<  c #75699D",
"1  c #7C6C9C",
"2  c #706397",
"3  c #7E739D",
"4  c #6C62A9",
"5  c #7366A1",
"6  c #766AA2",
"7  c #7A6DA4",
"8  c #7167AA",
"9  c #746BA9",
"0  c #7B73AB",
"q  c #7F76A6",
"w  c #81759D",
"e  c #857B9F",
"r  c #887E9F",
"t  c #8377A6",
"y  c #847BA5",
"u  c #857BAD",
"i  c #847BA9",
"p  c #927EA4",
"a  c #8C829B",
"s  c #9F9695",
"d  c #A59B92",
"f  c #BAB28F",
"g  c #AAA198",
"h  c #8D83A2",
"j  c #8C84AD",
"k  c #9086A5",
"l  c #948BA4",
"z  c #978FAA",
"x  c #9C94A5",
"c  c #9B93AC",
"v  c #9F98AA",
"b  c #8D82B0",
"n  c #9086B2",
"m  c #968DB1",
"M  c #998EB5",
"N  c #9A8FB8",
"B  c #9E93B9",
"V  c #9C91B7",
"C  c #AB86A0",
"Z  c #AC8AA1",
"A  c #A48EAA",
"S  c #AD93A4",
"D  c #A29AA7",
"F  c #A690AA",
"G  c #A995AD",
"H  c #A39CAB",
"J  c #AE9BA7",
"K  c #B19EAB",
"L  c #B099A6",
"P  c #A49CB4",
"I  c #A095BB",
"U  c #A69BBD",
"Y  c #A89DBF",
"T  c #ACA5AB",
"R  c #AFA9A8",
"E  c #B2A4AC",
"W  c #B3ACAD",
"Q  c #B6B0AD",
"!  c #B9B4AF",
"~  c #BDB7AB",
"^  c #ABA3B3",
"/  c #AEA9B4",
"(  c #ABA4B7",
")  c #B3AEB5",
"_  c #B1A8BA",
"`  c #B6B2B5",
"'  c #BAB5B4",
"]  c #BEBAB4",
"[  c #C3BA88",
"{  c #D7A6A8",
"}  c #D9ACAA",
"|  c #D8A8A9",
" . c #DAB6AD",
".. c #C1BCB1",
"X. c #CEB6B8",
"o. c #EAB4AC",
"O. c #ECBCAE",
"+. c #D5CD8C",
"@. c #DAD180",
"#. c #D0C891",
"$. c #DCD79F",
"%. c #E2DC96",
"&. c #ECE482",
"*. c #ECE58D",
"=. c #F5EE86",
"-. c #EFEA9F",
";. c #F3EE96",
":. c #F3EE9C",
">. c #D2CDAA",
",. c #DCD8AE",
"<. c #C9C5B3",
"1. c #CDC9B4",
"2. c #CFC9BE",
"3. c #C7C3B6",
"4. c #DEC9B4",
"5. c #DCC3BD",
"6. c #D1CDBA",
"7. c #DEC1B1",
"8. c #D6D3B7",
"9. c #D9D5B6",
"0. c #D6D4BA",
"q. c #D9D5BA",
"w. c #DEDCBC",
"e. c #DCD9B2",
"r. c #EBC0AF",
"t. c #E3DEA1",
"y. c #ECC4B1",
"u. c #EDCBB3",
"i. c #E3CDBF",
"p. c #E0C3B1",
"a. c #E2D4B7",
"s. c #E1DDBA",
"d. c #EFD9B8",
"f. c #E7D9B8",
"g. c #F3D4B6",
"h. c #F1D9B7",
"j. c #F2DDB8",
"k. c #ECE7A1",
"l. c #F1EEAB",
"z. c #F5F2AC",
"x. c #E4E2BB",
"c. c #E9E6BD",
"v. c #EDECBE",
"b. c #F1EFB5",
"n. c #F4E5BB",
"m. c #F2ECBE",
"M. c #F9EBBD",
"N. c #F4F2B1",
"B. c #F4F3BE",
"V. c #A79CC0",
"C. c #A99EC1",
"Z. c #B5ADC3",
"A. c #BBB2CA",
"S. c #C1B7CD",
"D. c #C2B9CD",
"F. c #CBC5C5",
"G. c #D2CBCE",
"H. c #D2CDC3",
"J. c #D9D4C7",
"K. c #CFC6D6",
"L. c #CFC6D5",
"P. c #D2CAD5",
"I. c #D6CED9",
"U. c #DDD5DE",
"Y. c #DCD4DF",
"T. c #DFD8DB",
"R. c #E2DECB",
"E. c #F6DFC5",
"W. c #E4DFD4",
"Q. c #E2DBD9",
"!. c #E5E3C0",
"~. c #EFEDC6",
"^. c #EEECC5",
"/. c #E9E5CD",
"(. c #EFEBCF",
"). c #F6E2C5",
"_. c #F9E2C6",
"`. c #F1EEC4",
"'. c #FDEFC6",
"]. c #F4F3C1",
"[. c #FAF4C3",
"{. c #F9F9C2",
"}. c #F7F8C2",
"|. c #E7E2D0",
" X c #E9E5D1",
".X c #E7E0D9",
"XX c #E9E3DB",
"oX c #EEE8DD",
"OX c #F1EED0",
"+X c #F0EADE",
"@X c #F4F1D2",
"#X c #FBF8D5",
"$X c #DDD5E1",
"%X c #E0D8E0",
/* pixels */
"                                                                                                                                ",
"                                                                                                                                ",
"                                                                                                                                ",
"                                                                                                                                ",
"                                                                                                                                ",
"                                                                                                                                ",
"                                @ $ $ $ $ $ $ @                           @ $ $ $ $ $ $ @                                       ",
"                              = = = = = = = = =                           = = = = = = = = =                                     ",
"                              3 e r r r r r e w 1                       3 w e r r r r r e 3                                     ",
"                          = 3 x W ! ! ! ! ! Q T k 2                 & 2 k T Q ! ! ! ! ! W x 1 *                                 ",
"                        @ = w T 9.c.c.x.c.c.x.<.x 2 &               & 2 x 1.x.c.c.x.c.c.8.T 3 * @                               ",
"                        $ = w E a.M.M.n.m.[.].8.x 2 % @           @ & 2 D 9.B.[.m.n.M.M.a.E 3 * $                               ",
"                        $ = 1 L p.g.g.g.j.M.B.8.v ; @ @ @ @ @ @ @ @ @ ; D 9.B.M.j.g.g.g.7.S , * $                               ",
"                        % = , Z } O.O.O.u.n.m.8.H < & & * = = = * & * < H 8.m.j.u.O.O.O.} Z , * $                               ",
"                        % = , C { o.o.o.r.h.m.q.) j 7 7 7 7 7 7 7 7 7 j ` w.m.h.y.o.o.o.{ C , * %                               ",
"                        % = , C { o.o.o.r.h.m.x.F.Z.Y U U U U U U U Y Z.F.!.m.h.O.o.o.o.{ C , * %                               ",
"                        % = , C } o.o.o.y.h.m.^.R.P.K.K.K.K.K.K.K.K.K.P.R.^.m.d.y.o.o.o.| Z , * %                               ",
"                        $ = , S  .y.y.y.u.j.m.~. XQ.%X$X%X%X%X%X%X$X%XQ. X~.m.j.u.y.y.y. .S , * $                               ",
"                        $ = w K 4.j.j.d.j.n.m.~. XQ.%X%X%X%X%X%X%X%X%XQ. X`.m.n.j.d.j.j.4.J 1 * $                               ",
"                        @ = w E s.m.B.m.m.B.].~.|.Q.U.U.U.U.U.U.U.U.U.Q.|.~.].B.m.m.B.m.s.E 3 * @                               ",
"                        @ = w W x.].{.].].B.].~.|.Q.U.U.U.U.U.U.U.U.U.Q.|.~.].B.].].{.].s.W 3 * @                               ",
"                        @ = w W x.}.{.].].B.].~.|.T.U.$XU.U.U.U.U.$XU.Q.|.~.].B.].].{.}.x.W 3 * @                               ",
"                        @ = w W x.].}.].].B.].~.|.Q.U.U.U.U.U.U.U.U.U.Q.|.~.].B.].].}.].s.W 3 * @                               ",
"                        $ = w W x.].{.].].B.].~./.W.Q.Q.Q.Q.Q.Q.Q.Q.Q.W./.`.].B.].].{.].s.W 3 * $                               ",
"                    & & $ = w W x.}.{.{.].].].`.^./././././././././././.^.`.].].}.{.{.].s.W 3 * $ & &                           ",
"                  & & & % = w W x.].].].].].].].].`.`.`.~.~.`.`.`.`.`.`.].].].].].].].].s.W 3 * % & & &                         ",
"                    & & % = w Q x.v.x.9.9.x.v.].].].].].].].].].].].].].].].v.x.9.9.x.v.s.W w * % & &                           ",
"                      & $ = w Q s.s...T T <.c.].].B.B.B.B.B.B.B.B.B.B.B.].].c.<.T T 3.x.s.W w * $ &                             ",
"                        $ = w Q s.8.T e h Q s.].].].].].].].].].].].].].].].s.W h e T 9.w.W w * @                               ",
"                        $ = w Q s.8.T r h Q x.].].].].].].].].].].].].].].].s.Q h r R 9.w.W w * $                               ",
"                      & $ = w Q x.x.<.R W 1.c.].].].].].].].].].].].].].].].c.1.W E <.x.s.W w * $ &                             ",
"                  & & & % = w Q x.m.c.w.w.c.m.].].].].].].].].].].].].].].].v.c.w.w.c.m.s.W w * % & & &                         ",
"                  & & & % = w W s.[.[.`.].].].].].].].].].].].].].].].].].].].].].].}.].s.W 3 * $ & & &                         ",
"                    & & $ = w W f.'.[.'.[.}.}.].].].}.}.].].].].].].].].].].}.}.[.'.[.'.f.E 3 = $ &                             ",
"                        @ = w E i._._.E._.`.].].].].].].].].B.].].].].].].].].`._.E._._.i.K w = @                               ",
"                        @ = 1 G X.5.5.5.5.q.w.w.w.w.w.w.w.w.w.w.w.w.w.w.w.s.w.q.5.5.5.5.X.G 1 =                                 ",
"                            < p A F A A G ^ ) ` ` ` ` ` ) ) ) ) ) ) ` ` ` ` ) ^ G A A F A p <                                   ",
"                              2 > > > > 1 t j j j j j j j j j j j j j j j j j t 1 > > > > 2                                     ",
"                              : : > 2 2 < 6 9 9 9 9 0 q i y j j u 0 0 9 9 9 9 6 < 2 2 > : :                                     ",
"                            5 u n m c x l i 9 4 4 4 7 a s g R ^ P b 0 4 4 4 9 i l x c m n u 5                                   ",
"                          * 7 B A.F.H.6.] v q 8 4 8 y d [ +.$.9.3.( u 8 4 8 i H ] 6.H.F.A.N 6 *                                 ",
"                        @ * 7 U K.XXOX~.w.` m u u u x f @.&.;.l.s.] c u u u m ' w.`.OXQ.K.U 7 * @                               ",
"                        @ * 7 C.I.+X#X{.v.6.' / ^ / ~ #.. o =.;.k.>.' / ^ / ' 0.^.{.#XoXI.U 7 * @                               ",
"                        @ * 7 V.P.XX@X].B.c.w.q.0.9.,.%.&.X X &.*.t.e.9.0.q.w.c.].].OXXXP.U 7 * @                               ",
"                        @ * 7 I D.G.J.w.x.c.`.].].].b.-.*.&.X &.*.k.b.].].].v.c.x.w.J.P.S.B 6 * @                               ",
"                          * 6 b B U ^ W ..9.v.{.{.{.B.z.:.;.;.;.:.z.B.{.{.{.v.9...W ^ U B b 6 *                                 ",
"                              5 6 6 < 3 l ..x.].{.].B.B.N.N.z.N.N.B.B.].{.B.x.] l 3 < 6 6 5                                     ",
"                              * * & & = 3 W w.].}.].^.c.x.s.s.s.x.c.^.].}.].w.T 3 * & & * *                                     ",
"                                @ @ + & < ^ J.OX@X(.R.2.' W T W ' 2.R.(.@XOXJ.P < & + @ @                                       ",
"                                    @ & 6 P G.XXoXQ.G._ h 3 1 3 k _ G..XoXXXG.P 6 & @                                           ",
"                                    @ * 6 B D.P.I.P.A.M > & # * < M A.P.I.P.S.V 6 & @                                           ",
"                                      * 5 b I V.C.U B u - @ O @ - u B U C.V.B b 5 &                                             ",
"                                          6 7 7 7 7 7 5           5 7 7 7 7 7 6                                                 ",
"                                          = = = = = =               = = = = = =                                                 ",
"                                            @ @ @ @                   @ @ @ @                                                   ",
"                                                                                                                                ",
"                                                                                                                                ",
"                                                                                                                                ",
"                                                                                                                                ",
"                                                                                                                                ",
"                                                                                                                                ",
"                                                                                                                                ",
"                                                                                                                                ",
"                                                                                                                                ",
"                                                                                                                                ",
"                                                                                                                                ",
"                                                                                                                                "
};
