/* XPM */
static char *result[] = {
/* columns rows colors chars-per-pixel */
"64 64 14 1 ",
"  c #90625D",
". c #AA7959",
"X c #A4C263",
"o c #C0D470",
"O c #EAE178",
"+ c #5C4E92",
"@ c #766DAA",
"# c #66BAE8",
"$ c #E8B5AC",
"% c #E8EEAA",
"& c #DDD5DE",
"* c #F3D8C5",
"= c #F3F2C0",
"- c #FAFDFF",
/* pixels */
"ooooooooooOOOOOOOOoooooooooooooooooooooooooooooooooooooooooooooo",
"oooooooOOOOOOOOOOOOOOooooooooooooooooooooooooooooooooooooooooooo",
"oooooooOooOOO..OOOooOooooooooooooooooooXXooXXooooooooooooooooooo",
"oooooooOoOOO...OOOOoOooooooooooooooooooXXooXXooooooooooooooooooo",
"oooooooOoOOOO..OOOOoOooooooooooooooooooooXXooooooooooooooooooooo",
"oooooooOoOOOO..OOOOXOooXXooooooooooooooooXXooooooooooooooooooooo",
"oooooooOooOOO..OOOoXOooXX++++++++oooooooooooo++++++++ooooooooooo",
"oooooooOOOOOOOOOOOOOOXXoo++++++++oooooooooooo++++++++ooooooooooo",
"oooooooooOOOOOOOOOOooX+++========+++oooooo+++========+++oooooooo",
"ooooooooooOOOOOOOOoooo+++========+++oooooo+++========+++oooooooo",
"oooooooooooOOOOOOooooo+++========+++oooooo+++========+++oooooooo",
"oooooooooooOOOOOOooooo+++$$$$$$==++++++++++++==$$$$$$+++oooooooo",
"oooooooooooOOOOOOooooo+++$$$$$$==++++++++++++==$$$$$$+++oooooooo",
"oooooooooooOOOOOOooooo+++$$$$$$==++++++++++++==$$$$$$+++oooooooo",
"oooooooooooOOOOOOooooo+++$$$$$$==&&&&&&&&&&&&==$$$$$$+++oooooooo",
"oooooooooooOOOOOOooooo+++$$$$$$==&&&&&&&&&&&&==$$$$$$+++oooooooo",
"oooooooooooOOOOOOooooo+++$$$$$$==&&&&&&&&&&&&==$$$$$$+++oooooooo",
"oooooooooooOOOOOO  ooo+++========&&&&&&&&&&&&========+++oooooooo",
"oooooooooooOOOOOO  ooo+++========&&&&&&&&&&&&========+++XXooXXoo",
"ooooooooooooooOOOOO++++++========&&&&&&&&&&&&========+++XXooXXoo",
"oooooooXXooXXoOOOOO++++++========&&&&&&&&&&&&========+++ooXXoooo",
"oooooooXXooXXoOOOOO++++++========&&&&&&&&&&&&========+++ooXXoooo",
"oooooooooXXoooooo++&&&+++============================+++++oooooo",
"oooooooooXXoooooo++&&&+++============================+++++oooooo",
"ooooooooooooooooo++&&&+++============================+++++oooooo",
"ooooooooooooooooo++===+++===++++==============++++===+++oooooooo",
"ooooooooooooooooo++===+++===+-#+==============+#-+===+++oooooooo",
"ooooooooooooooooo++===+++===+##+======$$$=====+##+===+++oooooooo",
"ooooooooooooooooooo++++++===++++=======$======++++===+++++oooooo",
"ooooooooooooooooooo++++++============================+++++oooooo",
"ooooooooooooooooooo++++++============================+++++oooooo",
"oooooooooooooooooooooo+++******================******+++oooooooo",
"oooooooooooooooooooooo+++******================******+++oooooooo",
"ooooooooooooooooooooooooo++++++@@@@@@@@@@@@@@@@++++++ooooooooooo",
"ooooooooooooooooooooooooo++++++@@@@@@@@@@@@@@@@++++++ooooooooooo",
"ooooooooooooooooooooooooo++++++@@@@@@@@@@@@@@@@++++++ooooooooooo",
"oooooooooooooooooooooooooooo+++@@@@@OOO===@@@@@+++oooooooooooooo",
"oooooooooooooooooooooooooooo+++@@@@@OOO===@@@@@+++oooooooooooooo",
"oooooooooooooooooooooooooooo+++@@@@@OOO===@@@@@+++oooooooooooooo",
"oooooooooooooooooooooooooooo+++=====OOOOOO=====+++oooooooooooooo",
"oooooooooooooooooooooooo%%oo+++=====OOOOOO=====+++oooooooooooooo",
"oooooooooooooooooooooooo%%oo+++=====OOOOOO=====+++oooooooooooooo",
"oooooooooooooooooooooooooo%%+++================+++oooooooooooooo",
"oooooooooooooooooooooooooo%%+++================+++oooooooooooooo",
"oooooooooooooooooooooooooooo+++================+++o%%ooooooooooo",
"oooooooooooooooooooooooooooo+++================+++o%%ooooooooooo",
"oooooooooooooooooooooooooooo+++================+++%ooooooooooooo",
"oooooooooooooooooooooooooooo+++&&&&&+++========+++%ooooooooooooo",
"oooooooooooooooooooooooooooo+++&&&&&+++========+++oooooooooooooo",
"oooooooooooooooooooooooooooo+++&&&&&+++========+++oooooooooooooo",
"ooooooooooooooooooooooooooooooo+++++ooo+++&&&&&+++oooooooooooooo",
"ooooooooooooooooooooooooooooooo+++++ooo+++&&&&&+++oooooooooooooo",
"ooooooooooooooooooooooooooooooo+++++ooo+++&&&&&+++oooooooooooooo",
"oooooooooooooooooooooooooooooooooooooooooo+++++ooooooooooooooooo",
"oooooooooooooooooooooooooooooooooooooooooo+++++ooooooooooooooooo",
"ooooooooo%%oo%%ooooooooooooooooooooooooooo+++++ooooooooooooooooo",
"ooooooooo%%oo%%ooooooooooooooooooooooooooooooooooooooooooooooooo",
"ooooooooooo%%ooooooooooooooooooooooooooooooooooooooooooooooooooo",
"ooooooooooo%%ooooooooooooooooooooooooooooooooooooooooooooooooooo",
"oooooooooooooooooooooooooooooooooooooooooooooooooooooooooooooooo",
"oooooooooooooooooooooooooooooooooooooooooooooooooooooooooooooooo",
"oooooooooooooooooooooooooooooooooooooooooooooooooooooooooooooooo",
"oooooooooooooooooooooooooooooooooooooooooooooooooooooooooooooooo",
"oooooooooooooooooooooooooooooooooooooooooooooooooooooooooooooooo"
};
