/* XPM */
static char *result[] = {
/* columns rows colors chars-per-pixel */
"64 64 7 1 ",
"  c #A4C263",
". c #C0D470",
"X c #5E508E",
"o c #776DA6",
"O c #E8EEAA",
"+ c #DCD4DD",
"@ c #F1F1C1",
/* pixels */
"........XXXXXXXXXXXXXXXX....................XXXXXXXXXXXX........",
"........XXXXXXXXXXXXXXXX....................XXXXXXXXXXXX........",
"........XXXXXXXXXXXXXXXX...............  .. XXXXXXXXXXXX........",
"........XXXXXXXXXXXXXXXX...............  .. XXXXXXXXXXXX........",
"....XXXX@@@@@@@@@@@@XXXXXXXXXXXXXXXXXXXXXXXX@@@@@@@@@@@@XXXX....",
"....XXXX@@@@@@@@@@@@XXXXXXXXXXXXXXXXXXXXXXXX@@@@@@@@@@@@XXXX....",
"....XXXX@@@@@@@@@@@@XXXXXXXXXXXXXXXXXXXXXXXX@@@@@@@@@@@@XXXX....",
"....XXXX@@@@@@@@@@@@XXXXXXXXXXXXXXXXXXXXXXXX@@@@@@@@@@@@XXXX....",
"....XXXX@@@@@@@@@@@@@@@@++++++++++++++++@@@@@@@@@@@@@@@@XXXX....",
"....XXXX@@@@@@@@@@@@@@@@++++++++++++++++@@@@@@@@@@@@@@@@XXXX....",
"....XXXX@@@@@@@@@@@@@@@@++++++++++++++++@@@@@@@@@@@@@@@@XXXX....",
"....XXXX@@@@@@@@@@@@@@@@++++++++++++++++@@@@@@@@@@@@@@@@XXXX....",
"....XXXX@@@@@@@@@@@@@@@@@@@@@@@@@@@@@@@@@@@@@@@@@@@@@@@@XXXX....",
"....XXXX@@@@@@@@@@@@@@@@@@@@@@@@@@@@@@@@@@@@@@@@@@@@@@@@XXXX....",
"....XXXX@@@@@@@@@@@@@@@@@@@@@@@@@@@@@@@@@@@@@@@@@@@@@@@@XXXX....",
"....XXXX@@@@@@@@@@@@@@@@@@@@@@@@@@@@@@@@@@@@@@@@@@@@@@@@XXXX....",
"........XXXX@@@@@@@@@@@@@@@@@@@@@@@@@@@@@@@@@@@@@@@@XXXX........",
"........XXXX@@@@@@@@@@@@@@@@@@@@@@@@@@@@@@@@@@@@@@@@XXXX........",
"........XXXX@@@@@@@@@@@@@@@@@@@@@@@@@@@@@@@@@@@@@@@@XXXX  ..  ..",
"........XXXX@@@@@@@@@@@@@@@@@@@@@@@@@@@@@@@@@@@@@@@@XXXX  ..  ..",
"....XXXXXXXX@@@@@@@@@@@@@@@@@@@@@@@@@@@@@@@@@@@@@@@@XXXXXXXX....",
"....XXXXXXXX@@@@@@@@@@@@@@@@@@@@@@@@@@@@@@@@@@@@@@@@XXXXXXXX....",
"....XXXXXXXX@@@@@@@@@@@@@@@@@@@@@@@@@@@@@@@@@@@@@@@@XXXXXXXX....",
"....XXXXXXXX@@@@@@@@@@@@@@@@@@@@@@@@@@@@@@@@@@@@@@@@XXXXXXXX....",
"........XXXX@@@@@@@@@@@@@@@@@@@@@@@@@@@@@@@@@@@@@@@@XXXX........",
"........XXXX@@@@@@@@@@@@@@@@@@@@@@@@@@@@@@@@@@@@@@@@XXXX........",
"........XXXX@@@@@@@@@@@@@@@@@@@@@@@@@@@@@@@@@@@@@@@@XXXX........",
"........XXXX@@@@@@@@@@@@@@@@@@@@@@@@@@@@@@@@@@@@@@@@XXXX........",
"....XXXXXXXX@@@@@@@@@@@@@@@@@@@@@@@@@@@@@@@@@@@@@@@@XXXXXXXX....",
"....XXXXXXXX@@@@@@@@@@@@@@@@@@@@@@@@@@@@@@@@@@@@@@@@XXXXXXXX....",
"....XXXXXXXX@@@@@@@@@@@@@@@@@@@@@@@@@@@@@@@@@@@@@@@@XXXXXXXX....",
"....XXXXXXXX@@@@@@@@@@@@@@@@@@@@@@@@@@@@@@@@@@@@@@@@XXXXXXXX....",
"........XXXX@@@@@@@@@@@@@@@@@@@@@@@@@@@@@@@@@@@@@@@@XXXX........",
"........XXXX@@@@@@@@@@@@@@@@@@@@@@@@@@@@@@@@@@@@@@@@XXXX........",
"........XXXX@@@@@@@@@@@@@@@@@@@@@@@@@@@@@@@@@@@@@@@@XXXX........",
"........XXXX@@@@@@@@@@@@@@@@@@@@@@@@@@@@@@@@@@@@@@@@XXXX........",
"............XXXXXXXXooooooooooooooooooooooooXXXXXXXX............",
"............XXXXXXXXooooooooooooooooooooooooXXXXXXXX............",
"............XXXXXXXXooooooooooooooooooooooooXXXXXXXX............",
"............XXXXXXXXooooooooooooooooooooooooXXXXXXXX............",
"................XXXXooooooooooooooooooooooooXXXX................",
"................XXXXooooooooooooooooooooooooXXXX................",
"................XXXXooooooooooooooooooooooooXXXX................",
"................XXXXooooooooooooooooooooooooXXXX................",
"............XXXX++++@@@@@@@@XXXXXXXX@@@@@@@@++++XXXXO...........",
"............XXXX++++@@@@@@@@XXXXXXXX@@@@@@@@++++XXXXO...........",
"............XXXX++++@@@@@@@@XXXXXXXX@@@@@@@@++++XXXX............",
"............XXXX++++@@@@@@@@XXXXXXXX@@@@@@@@++++XXXX............",
"............XXXX++++@@@@XXXX@@@@@@@@XXXX@@@@++++XXXX............",
"............XXXX++++@@@@XXXX@@@@@@@@XXXX@@@@++++XXXX............",
"............XXXX++++@@@@XXXX@@@@@@@@XXXX@@@@++++XXXX............",
"............XXXX++++@@@@XXXX@@@@@@@@XXXX@@@@++++XXXX............",
"................XXXX@@@@@@@@@@@@@@@@@@@@@@@@XXXX................",
"................XXXX@@@@@@@@@@@@@@@@@@@@@@@@XXXX................",
"................XXXX@@@@@@@@@@@@@@@@@@@@@@@@XXXX................",
".........OO..OO.XXXX@@@@@@@@@@@@@@@@@@@@@@@@XXXX................",
".........OO..OO.XXXX++++++++XXXXXXXX++++++++XXXX................",
"...........OO...XXXX++++++++XXXXXXXX++++++++XXXX................",
"...........OO...XXXX++++++++XXXXXXXX++++++++XXXX................",
"................XXXX++++++++XXXXXXXX++++++++XXXX................",
"....................XXXXXXXX........XXXXXXXX....................",
"....................XXXXXXXX........XXXXXXXX....................",
"....................XXXXXXXX........XXXXXXXX....................",
"....................XXXXXXXX........XXXXXXXX...................."
};
