/* XPM */
static char *result[] = {
/* columns rows colors chars-per-pixel */
"64 64 13 1 ",
"  c #A4C263",
". c #C0D470",
"X c #E7E07F",
"o c #5E508E",
"O c #776DA6",
"+ c #3296C3",
"@ c #E4B5AC",
"# c #E8B5AC",
"$ c #E8EEAA",
"% c #DCD4DD",
"& c #F0D8C5",
"* c #F1F1C1",
"= c white",
/* pixels */
"........................oooooooooooo............................",
"........................oooooooooooo............................",
"........................oooooooooooo...  ..  ...................",
"........................oooooooooooo...  ..  ...................",
"....................oooo************oooo.  .....................",
"................... oooo************oooo.  .....................",
"................... oooo************oooo........................",
"....................oooo************oooo........................",
"................oooo****@@@@@@@@****oooooooo....................",
"................oooo****@@@@@@@@****oooooooo....................",
"................oooo****@@@@@@@@****oooooooo....................",
"................oooo****@@@@@@@@****oooooooo....................",
"................oooo****@@@@@@@@************oooo................",
"................oooo****@@@@@@@@************oooo................",
"................oooo****@@@@@@@@************oooo................",
"................oooo****@@@@@@@@************oooo................",
"................oooo************************oooo................",
"................oooo************************oooo................",
"................oooo************************oooo........  ..  ..",
"................oooo************************oooo........  ..  ..",
".......  ..  ...oooo************************oooo..........  ....",
".......  ..  ...oooo************************oooo..........  ....",
".........  .....oooo************************oooo................",
".........  .....oooo************************oooo................",
"............oooooooo************************oooooooo............",
"............oooooooo************************oooooooo............",
"............oooooooo************************oooooooo............",
"............oooooooo************************oooooooo............",
"................oooo****************oooo********oooo............",
"................oooo****************o=+o********oooo............",
"................oooo****************o++o********oooo............",
"................oooo****************oooo******##oooo............",
"............oooooooo***************************#oooo............",
"............oooooooo****************************oooo............",
"............oooooooo****************************oooo............",
"............oooooooo****************************oooo............",
"................oooo********&&&&&&&&************oooo............",
"................oooo********&&&&&&&&************oooo............",
"................oooo********&&&&&&&&************oooo............",
"................oooo********&&&&&&&&************oooo............",
"....................ooooOOOOOOOOOOOOOOOOOOOOoooo................",
"....................ooooOOOOOOOOOOOOOOOOOOOOoooo................",
"....................ooooOOOOOOOOOOOOOOOOOOOOoooo................",
"....................ooooOOOOOOOOOOOOOOOOOOOOoooo................",
"................oooo%%%%****OOOOOOOOOOOOOOOOXXXX$..$$...........",
"................oooo%%%%****OOOOOOOOOOOOOOOOXXXX$..$$...........",
"................oooo%%%%****OOOOOOOOOOOOOOOOXXXX.$$.............",
"................oooo%%%%****OOOOOOOOOOOOOOOOXXXX.$$.............",
"................oooo%%%%****************ooooXXXX................",
"................oooo%%%%****************ooooXXXX................",
"................oooo%%%%****************ooooXXXX................",
"................oooo%%%%****************ooooXXXX................",
"....................oooooooo****************oooo................",
"....................oooooooo****************oooo................",
"....................oooooooo****************oooo................",
".........$$..$$.....oooooooo****************oooo................",
".........$$..$$.....oooooooooooooooo%%%%%%%%oooo................",
"...........$$.......oooooooooooooooo%%%%%%%%oooo................",
"...........$$.......oooooooooooooooo%%%%%%%%oooo................",
"....................oooooooooooooooo%%%%%%%%oooo................",
"........................oooooooo....oooooooo....................",
"........................oooooooo....oooooooo....................",
"........................oooooooo....oooooooo....................",
"........................oooooooo....oooooooo...................."
};
