/* XPM */
static char *result[] = {
/* columns rows colors chars-per-pixel */
"64 64 6 1 ",
"  c #A4C263",
". c #C0D470",
"X c #5E508E",
"o c #776DA6",
"O c #DCD4DD",
"+ c #F1F1C1",
/* pixels */
"............XXXXXXXXXXXX................XXXXXXXXXXXX............",
"............XXXXXXXXXXXX................XXXXXXXXXXXX............",
"............XXXXXXXXXXXX............... XXXXXXXXXXXX............",
"............XXXXXXXXXXXX............... XXXXXXXXXXXX............",
"........XXXX++++++++++++XXXX........XXXX++++++++++++XXXX........",
"........XXXX++++++++++++XXXX........XXXX++++++++++++XXXX........",
"........XXXX++++++++++++XXXX........XXXX++++++++++++XXXX........",
"........XXXX++++++++++++XXXX........XXXX++++++++++++XXXX........",
"........XXXX++++++++++++XXXXXXXXXXXXXXXX++++++++++++XXXX........",
"........XXXX++++++++++++XXXXXXXXXXXXXXXX++++++++++++XXXX........",
"........XXXX++++++++++++XXXXXXXXXXXXXXXX++++++++++++XXXX........",
"........XXXX++++++++++++XXXXXXXXXXXXXXXX++++++++++++XXXX........",
"........XXXX++++++++++++OOOOOOOOOOOOOOOO++++++++++++XXXX........",
"........XXXX++++++++++++OOOOOOOOOOOOOOOO++++++++++++XXXX........",
"........XXXX++++++++++++OOOOOOOOOOOOOOOO++++++++++++XXXX........",
"........XXXX++++++++++++OOOOOOOOOOOOOOOO++++++++++++XXXX........",
"........XXXX++++++++++++++++++++++++++++++++++++++++XXXX........",
"........XXXX++++++++++++++++++++++++++++++++++++++++XXXX........",
"........XXXX++++++++++++++++++++++++++++++++++++++++XXXX  ..  ..",
"........XXXX++++++++++++++++++++++++++++++++++++++++XXXX  ..  ..",
"....... XXXX++++++++++++++++++++++++++++++++++++++++XXXX..  ....",
"....... XXXX++++++++++++++++++++++++++++++++++++++++XXXX..  ....",
"........XXXX++++++++++++++++++++++++++++++++++++++++XXXX........",
"........XXXX++++++++++++++++++++++++++++++++++++++++XXXX........",
"....XXXXXXXX++++++++++++++++++++++++++++++++++++++++XXXXXXXX....",
"....XXXXXXXX++++++++++++++++++++++++++++++++++++++++XXXXXXXX....",
"....XXXXXXXX++++++++++++++++++++++++++++++++++++++++XXXXXXXX....",
"....XXXXXXXX++++++++++++++++++++++++++++++++++++++++XXXXXXXX....",
"........XXXX++++++++++++++++++++++++++++++++++++++++XXXX........",
"........XXXX++++++++++++++++++++++++++++++++++++++++XXXX........",
"........XXXX++++++++++++++++++++++++++++++++++++++++XXXX........",
"........XXXX++++++++++++++++++++++++++++++++++++++++XXXX........",
"....XXXXXXXX++++++++++++++++++++++++++++++++++++++++XXXXXXXX....",
"....XXXXXXXX++++++++++++++++++++++++++++++++++++++++XXXXXXXX....",
"....XXXXXXXX++++++++++++++++++++++++++++++++++++++++XXXXXXXX....",
"....XXXXXXXX++++++++++++++++++++++++++++++++++++++++XXXXXXXX....",
"........XXXX++++++++++++++++++++++++++++++++++++++++XXXX........",
"........XXXX++++++++++++++++++++++++++++++++++++++++XXXX........",
"........XXXX++++++++++++++++++++++++++++++++++++++++XXXX........",
"........XXXX++++++++++++++++++++++++++++++++++++++++XXXX........",
"............XXXXXXXXooooooooooooooooooooooooXXXXXXXXXXXX........",
"............XXXXXXXXooooooooooooooooooooooooXXXXXXXXXXXX........",
"............XXXXXXXXooooooooooooooooooooooooXXXXXXXXXXXX........",
"............XXXXXXXXooooooooooooooooooooooooXXXXXXXXXXXX........",
"............XXXXXXXXooooooooXXXXXXXXoooooooo++++OOOOXXXX........",
"............XXXXXXXXooooooooXXXXXXXXoooooooo++++OOOOXXXX........",
"............XXXXXXXXooooooooXXXXXXXXoooooooo++++OOOOXXXX........",
"............XXXXXXXXooooooooXXXXXXXXoooooooo++++OOOOXXXX........",
"........XXXXOOOO++++++++XXXX++++++++XXXX++++++++XXXX............",
"........XXXXOOOO++++++++XXXX++++++++XXXX++++++++XXXX............",
"........XXXXOOOO++++++++XXXX++++++++XXXX++++++++XXXX............",
"........XXXXOOOO++++++++XXXX++++++++XXXX++++++++XXXX............",
"........XXXXOOOO++++XXXX++++++++++++++++++++XXXX................",
"........XXXXOOOO++++XXXX++++++++++++++++++++XXXX................",
"........XXXXOOOO++++XXXX++++++++++++++++++++XXXX................",
"........XXXXOOOO++++XXXX++++++++++++++++++++XXXX................",
"........XXXXXXXXXXXXXXXXXXXXXXXXXXXXOOOOOOOOXXXX................",
"........XXXXXXXXXXXXXXXXXXXXXXXXXXXXOOOOOOOOXXXX................",
"........XXXXXXXXXXXXXXXXXXXXXXXXXXXXOOOOOOOOXXXX................",
"........XXXXXXXXXXXXXXXXXXXXXXXXXXXXOOOOOOOOXXXX................",
"....................................XXXXXXXX....................",
"....................................XXXXXXXX....................",
"....................................XXXXXXXX....................",
"....................................XXXXXXXX...................."
};
