/* XPM */
static char *result[] = {
/* columns rows colors chars-per-pixel */
"64 64 12 1 ",
"  c #A4C263",
". c #C0D470",
"X c #EAE178",
"o c #5C4E92",
"O c #766DAA",
"+ c #558EEA",
"@ c #E8B5AC",
"# c #E8EEAA",
"$ c #DDD5DE",
"% c #F3D8C5",
"& c #F3F2C0",
"* c white",
/* pixels */
".........oooooooooooooo..................oooooooooooooo.........",
".........oooooooooooooo..................oooooooooooooo.........",
".........oooooooooooooo................  oooooooooooooo.........",
".........oooooooooooooo................  oooooooooooooo.........",
".....oooo&&&&&&&&&&&&&&oooo..........oooo&&&&&&&&&&&&&&oooo.....",
".....oooo&&&&&&&&&&&&&&oooo..........oooo&&&&&&&&&&&&&&oooo.....",
".....oooo&&&&&&&&&&&&&&oooo..........oooo&&&&&&&&&&&&&&oooo.....",
".....oooo&&&&&&&&&&&&&&oooo..........oooo&&&&&&&&&&&&&&oooo.....",
".....oooo@@@@@@@@@&&&&&oooooooooooooooooo&&&&&@@@@@@@@@oooo.....",
".....oooo@@@@@@@@@&&&&&oooooooooooooooooo&&&&&@@@@@@@@@oooo.....",
".....oooo@@@@@@@@@&&&&&oooooooooooooooooo&&&&&@@@@@@@@@oooo.....",
".....oooo@@@@@@@@@&&&&&oooooooooooooooooo&&&&&@@@@@@@@@oooo.....",
".....oooo@@@@@@@@@&&&&&$$$$$$$$$$$$$$$$$$&&&&&@@@@@@@@@oooo.....",
".....oooo@@@@@@@@@&&&&&$$$$$$$$$$$$$$$$$$&&&&&@@@@@@@@@oooo.....",
".....oooo@@@@@@@@@&&&&&$$$$$$$$$$$$$$$$$$&&&&&@@@@@@@@@oooo.....",
".....oooo@@@@@@@@@&&&&&$$$$$$$$$$$$$$$$$$&&&&&@@@@@@@@@oooo.....",
".....oooo&&&&&&&&&&&&&&$$$$$$$$$$$$$$$$$$&&&&&&&&&&&&&&oooo.....",
".....oooo&&&&&&&&&&&&&&$$$$$$$$$$$$$$$$$$&&&&&&&&&&&&&&oooo.....",
".....oooo&&&&&&&&&&&&&&$$$$$$$$$$$$$$$$$$&&&&&&&&&&&&&&oooo.  ..",
".....oooo&&&&&&&&&&&&&&$$$$$$$$$$$$$$$$$$&&&&&&&&&&&&&&oooo.  ..",
".....oooo&&&&&&&&&&&&&&$$$$$$$$$$$$$$$$$$&&&&&&&&&&&&&&oooo ....",
".....oooo&&&&&&&&&&&&&&$$$$$$$$$$$$$$$$$$&&&&&&&&&&&&&&oooo ....",
".....oooo&&&&&&&&&&&&&&$$$$$$$$$$$$$$$$$$&&&&&&&&&&&&&&oooo.....",
".....oooo&&&&&&&&&&&&&&$$$$$$$$$$$$$$$$$$&&&&&&&&&&&&&&oooo.....",
"ooooooooo&&&&&&&&&&&&&&&&&&&&&&&&&&&&&&&&&&&&&&&&&&&&&&ooooooooo",
"ooooooooo&&&&&&&&&&&&&&&&&&&&&&&&&&&&&&&&&&&&&&&&&&&&&&ooooooooo",
"ooooooooo&&&&&&&&&&&&&&&&&&&&&&&&&&&&&&&&&&&&&&&&&&&&&&ooooooooo",
"ooooooooo&&&&&&&&&&&&&&&&&&&&&&&&&&&&&&&&&&&&&&&&&&&&&&ooooooooo",
".....oooo&&&&&oooo&&&&&&&&&&&&&&&&&&&&&&&&&&&&oooo&&&&&oooo.....",
".....oooo&&&&&o+*o&&&&&&&&&&&&&&&&&&&&&&&&&&&&o*+o&&&&&oooo.....",
".....oooo&&&&&o++o&&&&&&&&&&&&&&&&&&&&&&&&&&&&o++o&&&&&oooo.....",
".....oooo&&&&&oooo&&&&&&&&&&&&&&&&&&&&&&&&&&&&oooo&&&&&oooo.....",
"ooooooooo&&&&&&&&&&&&&&&&&&&&&&&&&&&&&&&&&&&&&&&&&&&&&&ooooooooo",
"ooooooooo&&&&&&&&&&&&&&&&&&&&&&@@@&&&&&&&&&&&&&&&&&&&&&ooooooooo",
"ooooooooo&&&&&&&&&&&&&&&&&&&&&&&@&&&&&&&&&&&&&&&&&&&&&&ooooooooo",
"ooooooooo&&&&&&&&&&&&&&&&&&&&&&&&&&&&&&&&&&&&&&&&&&&&&&ooooooooo",
".....oooo%%%%%%%%%&&&&&&&&&&&&&&&&&&&&&&&&&&&&%%%%%%%%%oooo.....",
".....oooo%%%%%%%%%&&&&&&&&&&&&&&&&&&&&&&&&&&&&%%%%%%%%%oooo.....",
".....oooo%%%%%%%%%&&&&&&&&&&&&&&&&&&&&&&&&&&&&%%%%%%%%%oooo.....",
".....oooo%%%%%%%%%&&&&&&&&&&&&&&&&&&&&&&&&&&&&%%%%%%%%%oooo.....",
".........oooooooooOOOOOOOOOOOOOOOOOOOOOOOOOOOOooooooooo.........",
".........oooooooooOOOOOOOOOOOOOOOOOOOOOOOOOOOOooooooooo.........",
".........oooooooooOOOOOOOOOOOOOOOOOOOOOOOOOOOOooooooooo.........",
".........oooooooooOOOOOOOOOOOOOOOOOOOOOOOOOOOOooooooooo.........",
".....oooo$$$$$&&&&OOOOOOOOOXXXXX&&&&&OOOOOOOOO&&&&$$$$$oooo.....",
".....oooo$$$$$&&&&OOOOOOOOOXXXXX&&&&&OOOOOOOOO&&&&$$$$$oooo.....",
".....oooo$$$$$&&&&OOOOOOOOOXXXXX&&&&&OOOOOOOOO&&&&$$$$$oooo.....",
".....oooo$$$$$&&&&OOOOOOOOOXXXXX&&&&&OOOOOOOOO&&&&$$$$$oooo.....",
".....oooo$$$$$&&&&&&&&&&&&&XXXXXXXXXX&&&&&&&&&&&&&$$$$$oooo.....",
".....oooo$$$$$&&&&&&&&&&&&&XXXXXXXXXX&&&&&&&&&&&&&$$$$$oooo.....",
".....oooo$$$$$&&&&&&&&&&&&&XXXXXXXXXX&&&&&&&&&&&&&$$$$$oooo.....",
".....oooo$$$$$&&&&&&&&&&&&&XXXXXXXXXX&&&&&&&&&&&&&$$$$$oooo.....",
".........ooooooooo&&&&&&&&&&&&&&&&&&&&&&&&&&&&ooooooooo.........",
".........ooooooooo&&&&&&&&&&&&&&&&&&&&&&&&&&&&ooooooooo.........",
".........ooooooooo&&&&&&&&&&&&&&&&&&&&&&&&&&&&ooooooooo.........",
".........ooooooooo&&&&&&&&&&&&&&&&&&&&&&&&&&&&ooooooooo.........",
".........##..#oooo$$$$$$$$$oooooooooo$$$$$$$$$oooo..............",
"...........##.oooo$$$$$$$$$oooooooooo$$$$$$$$$oooo..............",
"...........##.oooo$$$$$$$$$oooooooooo$$$$$$$$$oooo..............",
"..............oooo$$$$$$$$$oooooooooo$$$$$$$$$oooo..............",
"..................ooooooooo..........ooooooooo..................",
"..................ooooooooo..........ooooooooo..................",
"..................ooooooooo..........ooooooooo..................",
"..................ooooooooo..........ooooooooo.................."
};
