/* XPM */
static char *_df3e0aa58dd4d76988fa9a4aa71d8afV4r7tMXqr6fie7iU[] = {
/* columns rows colors chars-per-pixel */
"64 64 30 1 ",
"  c #9BD4C3",
". c #9AD4C3",
"X c #9ED6C2",
"o c #A4D9C1",
"O c #AADCC0",
"+ c #AFDFBE",
"@ c #B2E1BE",
"# c #B3E1BE",
"$ c #A3D8C1",
"% c #A9DCC0",
"& c #AEDEBF",
"* c #B1E0BE",
"= c #B2E0BE",
"- c #9ED5C2",
"; c #A2D8C1",
": c #A7DBC0",
"> c #ABDDBF",
", c #AFDFBF",
"< c #9DD5C3",
"1 c #A0D7C2",
"2 c #9CD5C3",
"3 c #A3D9C1",
"4 c #A8DBC0",
"5 c #AEDFBF",
"6 c #A7DAC0",
"7 c #9AD3C3",
"8 c #A1D7C2",
"9 c #ABDCBF",
"0 c #A5D9C1",
"q c white",
/* pixels */
"                               .. XoO+@##@@##@+OoX ..           ",
"                               .. X$%&*=****=*&%$X ..           ",
"                               .. -;:>&,,&&,,&>:;- ..           ",
"          ........              . <1o:%OO%%OO%:o1< .            ",
"         ..........               2X1;3oo33oo3;1X2              ",
"                                   2<-XXXXXXXX-<2               ",
"       2<-XXXXXXXX-<2                                           ",
"      2X1;oooooooo;1X2               ..........                 ",
"    . <1o4OOOOOOOO4o1< .             ..........                 ",
"    . -;:>&,5&&5,&>:;- .                                        ",
"    . -;:>&,5&&5,&>:;- .                                        ",
"    . <1o4OOOOOOOO4o1< .                                        ",
"      2X1;oooooooo;1X2                                          ",
"       2<-XXXXXXXX-<2                                           ",
"                                                                ",
"         ..........                          .............      ",
"         ..........                          ..............     ",
"                                                                ",
"                                           2<-XXXXXXXXXXXX-<2   ",
"                                          2X1;oooooooooooo;1X2  ",
"                                        . <1o4OOOOOOOOOOOO4o1< .",
"                                        . -;:>&,5&&&&&&5,&>6;- 7",
"                                        . -;:>&,5&&&&&&5,&>6;- 7",
"                                        . <1o4OOOOOOOOOOOO4o1< .",
"                                          2X1;oooooooooooo;1X2  ",
"                                           2<-XXXXXXXXXXXX-<2   ",
"                                                                ",
"                     ..............          ..............     ",
"                     ..............          .............      ",
"                                                                ",
"                   2<-XXXXXXXXXXXX-<2                           ",
"                  2X1;oooooooooooo;1X2                          ",
"                . <1o4OOOOOOOOOOOO4o1< .                        ",
"                . -;:>&,5&&&&&&5,&>:;- .                        ",
"                . -;:>&,5&&&&&&5,&>:;- .                        ",
"...             . <1o4OOOOOOOOOOOO4o1< .                        ",
"....              2X1;oooooooooooo;1X2                          ",
"                   2<-XXXXXXXXXXXX-<2                           ",
"XX-<2                                                           ",
"oo;8X2               ..............                             ",
"9O408< .             ..............                             ",
"+&>:;- .                                                        ",
"+&>:;- .                                                        ",
"9O408< .                         ..............                 ",
"oo;8X2                           ..............                 ",
"XX-<2                                                           ",
"                               2<-XXXXXXXXXXXX-<2               ",
"....         ..........       2X1;oooooooooooo;1X2              ",
"...          ..........       <1o4OOOOOOOOOOOO4o1< .            ",
"                           .. -;:>&,5&&&&&&5,&>:;- .            ",
"           2<-XXXXXXXX-<2  .. -;:>&,5&&&&&&5,&>:;- .            ",
"          2X1;oooooooo;1X2 .. <1o4OOOOOOOOOOOO4o1< .            ",
"        . <1o4OOOOOOOO4o1< .. 2X1;oooooooooooo;1X2              ",
"        . -;:>&,5&&5,&>:;- ..  2<-XXXXXXXXXXXX-<2               ",
"        . -;:>&,5&&5,&>:;- ..                                   ",
"        . <1o4OOOOOOOO4o1<       ..............                 ",
"          2X1;oooooooo;1X2       ..............                 ",
"           2<-XXXXXXXX-<2                                       ",
"                                                                ",
"             ..........                                         ",
"              ........                                          ",
"                                                                ",
"                                                                ",
"                                                                "
};
