/* XPM */
static char *_c54b406520c4640f632b9cd3213e5edLrizA4m9orty5Zoh[] = {
/* columns rows colors chars-per-pixel */
"64 64 6 1 ",
"  c None",
". c #B78A62",
"X c #E8CFA6",
"o c #AA7959",
"O c #C49A6C",
"+ c white",
/* pixels */
"                                                                ",
"      ....            ....            ....            ....      ",
"     .XXXX.          .XXXX.          .XXXX.          .XXXX.     ",
"     .XXXX.          .XXXX.          .XXXX.          .XXXX.     ",
"     oOXXOo          oOXXOo.OOOOOOOO.oOXXOo.OOOOOOOO.oOXXOo     ",
"     oOOOOo          oOOOOooooooooooooOOOOooooooooooooOOOOo     ",
"     oOOOOo          oOOOOo          oOOOOo          oOOOOo     ",
"     oOooOo          oOooOo.OOOOOOOO.oOooOo.OOOOOOOO.oOooOo     ",
"     oOooOo          oOooOooooooooooooOooOooooooooooooOooOo     ",
"     o.oo.o          o.oo.oooooooooooo.oo.oooooooooooo.oo.o     ",
"     o.oo.o          o.oo.o          o.oo.o          o.oo.o     ",
"      .oo.            .oo.            .oo.            .oo.      ",
"       oo              oo              oo              oo       ",
"       oo              oo              oo              oo       ",
"       oo              oo              oo              oo       ",
"       oo              oo              oo              oo       ",
"       oo              oo              oo              oo       ",
"      ....            ....            ....            ....      ",
"     .XXXX.          .XXXX.          .XXXX.          .XXXX.     ",
"     .XXXX.          .XXXX.          .XXXX.          .XXXX.     ",
"     oOXXOo          oOXXOo.OOOOOOOO.oOXXOo.OOOOOOOO.oOXXOo     ",
"     oOOOOo          oOOOOooooooooooooOOOOooooooooooooOOOOo     ",
"     oOOOOo          oOOOOo          oOOOOo          oOOOOo     ",
"     oOooOo          oOooOo.OOOOOOOO.oOooOo.OOOOOOOO.oOooOo     ",
"     oOooOo          oOooOooooooooooooOooOooooooooooooOooOo     ",
"     o.oo.o          o.oo.oooooooooooo.oo.oooooooooooo.oo.o     ",
"     o.oo.o          o.oo.o          o.oo.o          o.oo.o     ",
"      .oo.            .oo.            .oo.            .oo.      ",
"       oo              oo              oo              oo       ",
"       oo              oo              oo              oo       ",
"       oo              oo              oo              oo       ",
"       oo              oo              oo              oo       ",
"       oo              oo              oo              oo       ",
"      ....            ....            ....            ....      ",
"     .XXXX.          .XXXX.          .XXXX.          .XXXX.     ",
"     .XXXX.          .XXXX.          .XXXX.          .XXXX.     ",
"     oOXXOo          oOXXOo.OOOOOOOO.oOXXOo.OOOOOOOO.oOXXOo     ",
"     oOOOOo          oOOOOooooooooooooOOOOooooooooooooOOOOo     ",
"     oOOOOo          oOOOOo          oOOOOo          oOOOOo     ",
"     oOOOOo          oOOOOo.OOOOOOOO.oOOOOo.OOOOOOOO.oOOOOo     ",
"     oOOOOo          oOOOOooooooooooooOOOOooooooooooooOOOOo     ",
"     o.OO.o          o.OO.oooooooooooo.OO.oooooooooooo.OO.o     ",
"     o....o          o....o          o....o          o....o     ",
"      ....            ....            ....            ....      ",
"                                                                ",
"                                                                ",
"                                                                ",
"                                                                ",
"                                                                ",
"      ....            ....            ....            ....      ",
"     .XXXX.          .XXXX.          .XXXX.          .XXXX.     ",
"     .XXXX.          .XXXX.          .XXXX.          .XXXX.     ",
"     oOXXOo          oOXXOo.OOOOOOOO.oOXXOo.OOOOOOOO.oOXXOo     ",
"     oOOOOo          oOOOOooooooooooooOOOOooooooooooooOOOOo     ",
"     oOOOOo          oOOOOo          oOOOOo          oOOOOo     ",
"     oOOOOo          oOOOOo.OOOOOOOO.oOOOOo.OOOOOOOO.oOOOOo     ",
"     oOOOOo          oOOOOooooooooooooOOOOooooooooooooOOOOo     ",
"     o.OO.o          o.OO.oooooooooooo.OO.oooooooooooo.OO.o     ",
"     o....o          o....o          o....o          o....o     ",
"      ....            ....            ....            ....      ",
"                                                                ",
"                                                                ",
"                                                                ",
"                                                                "
};
