/* XPM */
static char *accd415be7734443a6fd711102c315eflkLqVHcRjkQAJbB6[] = {
/* columns rows colors chars-per-pixel */
"64 64 136 2 ",
"   c None",
".  c #5C7678",
"X  c #5E7879",
"o  c #627777",
"O  c #6A7573",
"+  c #6F7871",
"@  c #627F7A",
"#  c #717971",
"$  c #8E5F5C",
"%  c #8E605D",
"&  c #91605C",
"*  c #996A5E",
"=  c #A7765B",
"-  c #AC7A5A",
";  c #816865",
":  c #896B63",
">  c #9B6E60",
",  c #937461",
"<  c #9F7261",
"1  c #987961",
"2  c #A37661",
"3  c #A67A63",
"4  c #AC7F61",
"5  c #62817A",
"6  c #6A877D",
"7  c #678A7A",
"8  c #6A8C7C",
"9  c #6D967C",
"0  c #70967D",
"q  c #749B7E",
"w  c #B2825E",
"e  c #AE8263",
"r  c #B38660",
"t  c #B68963",
"y  c #B98D64",
"u  c #BA8F69",
"i  c #BC9066",
"p  c #BD9369",
"a  c #C1976A",
"s  c #C49A6C",
"d  c #6F8D80",
"f  c #718F81",
"g  c #779582",
"h  c #789782",
"j  c #779E80",
"k  c #799F81",
"l  c #7CA182",
"z  c #80A385",
"x  c #86AC87",
"c  c #88AE87",
"v  c #8AAC89",
"b  c #8EB38A",
"n  c #91B58C",
"m  c #97BB8E",
"M  c #98BC8E",
"N  c #9ABE90",
"B  c #9FC491",
"V  c #9CC191",
"C  c #A0C391",
"Z  c #A2C591",
"A  c #A0C492",
"S  c #A1C593",
"D  c #A0C593",
"F  c #A1C693",
"G  c #A2C793",
"H  c #A6C993",
"J  c #A7CA93",
"K  c #A3C894",
"L  c #A4C994",
"P  c #A5C994",
"I  c #A5CA94",
"U  c #A5CA95",
"Y  c #A5CB95",
"T  c #A6CB95",
"R  c #A8CE96",
"E  c #A9CE96",
"W  c #A9CE97",
"Q  c #A9CF97",
"!  c #AACF97",
"~  c #AAD097",
"^  c #ABD097",
"/  c #ABD197",
"(  c #ACD096",
")  c #AED297",
"_  c #AFD297",
"`  c #ABD198",
"'  c #ACD298",
"]  c #ADD298",
"[  c #ADD398",
"{  c #ADD399",
"}  c #ADD499",
"|  c #AFD498",
" . c #AED499",
".. c #AFD499",
"X. c #AED599",
"o. c #AFD599",
"O. c #AFD59A",
"+. c #AFD69A",
"@. c #B4D597",
"#. c #B5D697",
"$. c #B0D498",
"%. c #B1D498",
"&. c #B0D599",
"*. c #B1D699",
"=. c #B2D699",
"-. c #B2D799",
";. c #B3D799",
":. c #B0D69A",
">. c #B1D79A",
",. c #B2D79A",
"<. c #B3D79A",
"1. c #B3D899",
"2. c #B3D89A",
"3. c #B6D999",
"4. c #B7D999",
"5. c #B4D89A",
"6. c #B4D99A",
"7. c #B5D99A",
"8. c #BAD998",
"9. c #BADA98",
"0. c #B9DB9A",
"q. c #BADB9A",
"w. c #BADC9A",
"e. c #BBDC9A",
"r. c #BCDC99",
"t. c #BDDD9A",
"y. c #BEDD9A",
"u. c #BEDE9A",
"i. c #BFDE9A",
"p. c #BFDF9A",
"a. c #C1DF9A",
"s. c #C1E09A",
"d. c #C2E09A",
"f. c #C3E09A",
"g. c #C3E19A",
"h. c #C4E19A",
/* pixels */
"                                                                                                                                ",
"                                                                                                                                ",
"                                                X X . . . . . . . . . . . . X X X X                                             ",
"                                                6 8 f f f f f f f f f f f f 8 8 8 6                                             ",
"                                        X . . 6 l b m N N N N N N N N N N m v v v z 6 .                                         ",
"                                        6 8 d k n K ] :.6.6.6.6.6.2.:.:.6.:.J S S n h 6                                         ",
"                                X . . 6 l v m B T /  .2.e.p.p.p.p.e.:.:.e.p.0.@._ S n l 6 . . X                                 ",
"                                6 8 8 k n K ] :. . . .:.p.g.g.g.g.p.:.:.p.h.h.p.6.` K n g 6 6 6                                 ",
"                            . 6 k v m B T /  . . . . .:.p.g.g.g.g.p.:.:.p.h.h.p.2.] ` S n v v z 6 .                             ",
"                            6 h n T :.6.6.:.:.:. . .:.6.p.g.g.g.p.0.:.:.0.p.p.0.:. . ./ S B B n h 6                             ",
"                        . 6 l n S  .0.p.p.p.p.0.:.:.0.p.a.g.g.p.6.:. . .:.:.:.:. . . .] / ! / S n l 6 .                         ",
"                        6 g v B ! 6.p.g.g.g.g.p.6.6.p.g.g.g.p.0.:. . . .:.:.:.:.:.:. . . . . .! B v g 6                         ",
"                    X 6 z v n B ! 6.p.g.g.g.g.a.p.p.g.g.g.p.6.:. . . .:.0.p.p.p.p.0.:. . . . .! B m v z 6 X                     ",
"                    . 8 b B B S ! :.0.p.p.p.a.g.g.g.p.p.p.0.:. . . . .:.p.g.g.g.g.p.6.:.:.:.2._ B m M v 8 .                     ",
"                    . d m / ! ! ]  .:.;.:.6.p.g.g.p.6.:.:.:. . . . . .:.p.g.g.g.g.g.p.p.p.p.p.@.C m M v 6 .                     ",
"                    6 k B :.:. . . . . .] :.0.p.p.0.:.]  . . . . . . .:.0.p.p.p.p.p.g.g.g.g.h.0.H B B n h 6                     ",
"                X 6 z n T  . . . . . . . . .:.:.:.:. . . . . . . . . . .:.:.:.:.:.6.p.g.g.g.g.p._ ! ! S n z 6 X                 ",
"                X 8 v B !  . . . . . . . . . . . . . . . . . . . . . . . . . . . .:.0.p.p.p.p.0.:. . ./ B v 8 X                 ",
"                X 8 v B /  . . . . . . . . . . . . . . . . . . . . . . . . . . . .:.:.:.:.:.:.:.:. . ./ B v 8 X                 ",
"                X 8 v B T ! ! ! ]  . . . .] ! ! ! ! ]  . . . . . . . . . .] ! ! ! ! ! ! ]  . .] ! ! ! T B v 8 X                 ",
"                . 8 v M B B B S !  . . . .! S B B S !  . . . . . . . . . .! S B B B N B !  . .! S B B B N v 8 X                 ",
"                X 8 v M M m m B !  . . . .! B m m B !  . . . . . . . . . .! B m m m m B !  . .! B m m n b z 6 X                 ",
"                . 8 v M M m m B !  . . . .! B m m B !  . . . . . . .]  . .! B m m m m B !  . .! B m m v g 6                     ",
"                X 8 v M M m m V T ! ! ! ! T N m m V T ! ! ! ! / ]  . .] ! T S B B B B S T ! ! T V M M v 6 .                     ",
"                X 8 v M M m m M N B V V B N M m m M V B B B B S /  . ./ S B T ! ! ! ! T S B B V M m M v 6 .                     ",
"                X 6 z b m m m m m m N V B B B V M m m m m m m N T ! ! T N N T ! ! ! ! T N m m m m M M v g 6                     ",
"                    6 g v M M m m N T ! ! ! ! T V m m m m m m M N B B N M M V B B B B V M m m m m m m m b z 6 X                 ",
"                    . 6 v M M m m V T ! ! ! ! T V m m m m m m m m m m m m m m m m m m m m m m m m m m M M v 8 X                 ",
"                    . 6 v M M m m M V B B B B V M m m m m m m m m m m m m m m m m m m m m m m m m m m M M v 8 X                 ",
"                    @ 8 v M M m m m m m m m m m m m m M M M M m m m m m m m m m m m m M M M M M M M M m n z 6 X                 ",
"                X @ 7 j b M M M m m m M M m m m m m M M M M M M m m m m m m m m m m M M M M M M M M M n z 0 5 X                 ",
"                X 5 8 q x b b n m m n b b b m m m m b b b b b b m m m m m m m m m m b b b b b b b b b x q 8 5 X                 ",
"                X 5 8 0 q k j z n n z j j l b M M b l j j j j l b M m m m m m m M b l j j k k k k k k q 0 8 5 X                 ",
"                X 5 8 9 9 9 9 k b b k 9 9 j b M M b j 9 9 9 9 j b M M m m M M M M b j 9 9 9 9 9 9 9 9 9 9 8 5 X                 ",
"                X 5 8 9 9 9 9 l b b k 9 9 k b M M b j 9 9 9 9 j b M M m M M M M M b j 9 9 9 9 9 9 9 9 9 9 8 5 X                 ",
"                X 5 8 9 9 9 9 q x x q 9 9 q x b b c l k k k k z n M M m n b b b b c l k k l l q 0 9 9 9 9 7 5 X                 ",
"                X 5 8 9 9 9 9 0 q q 0 9 9 0 q k k l v b b b b n m M M n z j j k j l v b b b b x q 9 9 9 7 5                     ",
"                X 5 7 9 9 9 9 0 q k k l l q 0 9 9 q x b b b b b b b b x q 9 9 9 9 q x b b b b x q 9 9 8 5 X                     ",
"                    5 7 9 9 9 q x b b b b x q 9 9 0 q l l k k k k k k q 0 9 9 9 9 0 q l l l l q 0 9 9 8 5 X                     ",
"                    X 5 8 9 9 q x b b b b x q 9 9 9 9 9 9 9 9 9 9 9 9 9 9 9 9 9 9 9 9 9 9 9 9 9 9 9 9 8 5 X                     ",
"                    X 5 8 9 9 0 q l l l l q 0 9 9 9 9 9 9 9 9 9 9 9 9 9 9 9 9 9 9 9 9 9 9 9 9 9 9 9 9 8 5 X                     ",
"                    X 5 7 9 9 9 9 9 9 9 9 9 9 9 9 9 9 9 9 9 9 9 9 9 9 9 9 9 9 9 9 9 9 9 9 9 9 9 9 9 9 7 5 X                     ",
"                        @ 7 9 9 9 9 9 9 9 9 9 9 9 9 9 9 9 9 9 9 9 9 9 9 9 9 9 9 9 9 9 9 9 9 9 9 9 9 7 @                         ",
"                        X @ 7 8 8 9 9 9 9 9 9 9 9 9 9 9 9 9 9 9 9 9 9 9 9 9 9 9 9 9 9 9 9 8 8 8 8 7 @ X                         ",
"                            5 5 5 7 9 9 9 9 9 9 9 9 9 9 9 9 9 9 9 9 9 9 9 9 9 9 9 9 9 9 7 5 5 5 5 5                             ",
"                            X X X 5 7 8 8 8 8 8 8 9 8 8 8 8 8 8 8 8 8 8 8 8 9 8 8 8 8 7 5 X X X X X                             ",
"                                    5 5 5 5 5 5 5 5 5 5 5 5 5 5 5 5 5 5 5 5 5 5 5 5 5 5                                         ",
"                                    X X X X X o O O + # # # # # # # # # # + O O o X X X                                         ",
"                                                ; : , 1 1 1 1 1 1 1 1 1 1 , : ;                                                 ",
"                                                & * = - - - - - - - - - - = * &                                                 ",
"                                                & * - w - - - - - - - - w - * &                                                 ",
"                                                % * e r w - - - - - - w r e * %                                                 ",
"                                                % * 4 t r r r r r r r r t 4 * %                                                 ",
"                                                % * 4 y y y t t y y y y y e * %                                                 ",
"                                                $ * 4 y p p y y p a a a a t > $                                                 ",
"                                                > 2 r i a a i i a s s s s i 3 >                                                 ",
"                                            % > e u p a s s a a a s s s s a i e > %                                             ",
"                                            % < u s s s s s s s s s s s s s s u < %                                             ",
"                                                a s s s s s s s s s s s s s s a                                                 ",
"                                                s s s s s s s s s s s s s s s s                                                 ",
"                                                            s s s s                                                             ",
"                                                            s s s s                                                             ",
"                                                                                                                                ",
"                                                                                                                                "
};
